<?xml version="1.0" encoding="UTF-8"?>
<svg width="375px" height="20px" viewBox="0 0 375 20" version="1.1" xmlns="http://www.w3.org/2000/svg" xmlns:xlink="http://www.w3.org/1999/xlink">
    <!-- Generator: Sketch 54.1 (76490) - https://sketchapp.com -->
    <title>Bars / Status Bar / iPhone 8 / On Light</title>
    <desc>Created with Sketch.</desc>
    <g id="Bars-/-Status-Bar-/-iPhone-8-/-On-Light" stroke="none" stroke-width="1" fill="none" fill-rule="evenodd">
        <g id="Right-Detail" transform="translate(296.000000, 1.000000)">
            <g id="Battery" transform="translate(11.000000, 0.000000)">
                <g id="分组" transform="translate(36.000000, 3.500000)">
                    <path d="M3.2048565,0.5 C2.26431807,0.5 1.89540921,0.571239588 1.5147423,0.774822479 C1.19446913,0.946106445 0.946106445,1.19446913 0.774822479,1.5147423 C0.571239588,1.89540921 0.5,2.26431807 0.5,3.2048565 L0.5,8.2951435 C0.5,9.23568193 0.571239588,9.60459079 0.774822479,9.9852577 C0.946106445,10.3055309 1.19446913,10.5538936 1.5147423,10.7251775 C1.89540921,10.9287604 2.26431807,11 3.2048565,11 L22.0738202,11 C22.8614775,11 23.5,10.3614775 23.5,9.57382015 L23.5,3.2048565 C23.5,2.26431807 23.4287604,1.89540921 23.2251775,1.5147423 C23.0538936,1.19446913 22.8055309,0.946106445 22.4852577,0.774822479 C22.1045908,0.571239588 21.7356819,0.5 20.7951435,0.5 L3.2048565,0.5 Z" id="Border" stroke="#000000" opacity="0.400000006"></path>
                    <path d="M25,4 C25.8626136,4.2220214 26.5,5.00507154 26.5,5.93699126 C26.5,6.86891097 25.8626136,7.65196112 25,7.87398251 L25,4 Z" id="Nub" fill="#000000" opacity="0.400000006"></path>
                    <path d="M2.5,2 L21.5,2 C21.7761424,2 22,2.22385763 22,2.5 L22,9 C22,9.27614237 21.7761424,9.5 21.5,9.5 L2.5,9.5 C2.22385763,9.5 2,9.27614237 2,9 L2,2.5 C2,2.22385763 2.22385763,2 2.5,2 Z" id="Charge" fill="#000000"></path>
                </g>
                <text id="100%" font-family="PingFangSC-Medium, PingFang SC" font-size="12" font-weight="400" fill="#000000">
                    <tspan x="1.824" y="13.5">100%</tspan>
                </text>
            </g>
            <path d="M3.5,3 L7.5,6.5 L4.75,8.9995 L7.5,11.5 L3.5,15 L3.5,10.2490234 L1.25,12.5 L0.5,11.75 L3.25,9 L0.5,6.25 L1.25,5.5 L3.5,7.75 L3.5,3 Z M4.5,5.36999989 L4.5,8 L6,6.5999999 L4.5,5.36999989 Z M4.5005,10 L4.5,12.75 L6,11.4589233 L4.5005,10 Z" id="bluetooth" fill="#000000"></path>
        </g>
        <text id="Time" font-family="PingFangSC-Medium, PingFang SC" font-size="12" font-weight="400" fill="#000000">
            <tspan x="164.79" y="16.5">9:41 AM</tspan>
        </text>
        <g id="Left-Detail" transform="translate(6.000000, 5.000000)" fill="#000000">
            <path d="M14.25,0 L15.75,0 C16.1642136,-7.6089797e-17 16.5,0.335786438 16.5,0.75 L16.5,9.25 C16.5,9.66421356 16.1642136,10 15.75,10 L14.25,10 C13.8357864,10 13.5,9.66421356 13.5,9.25 L13.5,0.75 C13.5,0.335786438 13.8357864,7.6089797e-17 14.25,0 Z M9.75,2 L11.25,2 C11.6642136,2 12,2.33578644 12,2.75 L12,9.25 C12,9.66421356 11.6642136,10 11.25,10 L9.75,10 C9.33578644,10 9,9.66421356 9,9.25 L9,2.75 C9,2.33578644 9.33578644,2 9.75,2 Z M5.25,4 L6.75,4 C7.16421356,4 7.5,4.33578644 7.5,4.75 L7.5,9.25 C7.5,9.66421356 7.16421356,10 6.75,10 L5.25,10 C4.83578644,10 4.5,9.66421356 4.5,9.25 L4.5,4.75 C4.5,4.33578644 4.83578644,4 5.25,4 Z M0.75,5.5 L2.25,5.5 C2.66421356,5.5 3,5.83578644 3,6.25 L3,9.25 C3,9.66421356 2.66421356,10 2.25,10 L0.75,10 C0.335786438,10 5.07265313e-17,9.66421356 0,9.25 L0,6.25 C-5.07265313e-17,5.83578644 0.335786438,5.5 0.75,5.5 Z" id="Signal"></path>
            <path d="M20.9908519,2.99085192 C22.7169011,1.44209802 24.9984311,0.5 27.5,0.5 C30.0015689,0.5 32.2830989,1.44209802 34.0091481,2.99085192 L33.1237701,3.87622995 C31.6251889,2.5529753 29.6563669,1.75 27.5,1.75 C25.3436331,1.75 23.3748111,2.5529753 21.8762299,3.87622995 L20.9908519,2.99085192 Z M23.3831418,5.38314182 C24.4931668,4.44532529 25.9280645,3.88000011 27.4950008,3.88000011 C29.0644872,3.88000011 30.5015048,4.4471668 31.6122766,5.38772337 L30.7300995,6.26990048 C29.8478592,5.55102715 28.7217659,5.11999989 27.4950008,5.11999989 C26.2707894,5.11999989 25.1468312,5.54923452 24.2654149,6.26541489 L23.3831418,5.38314182 Z M25.8767575,7.87675746 C26.3386883,7.56019965 26.8977163,7.375 27.5,7.375 C28.1022837,7.375 28.6613117,7.56019965 29.1232425,7.87675746 L27.5,9.5 L25.8767575,7.87675746 Z" id="Wifi" stroke="#000000" stroke-linecap="round" stroke-linejoin="round"></path>
        </g>
    </g>
</svg>