<?xml version="1.0" encoding="UTF-8"?>
<svg width="91px" height="33px" viewBox="0 0 91 33" version="1.1" xmlns="http://www.w3.org/2000/svg" xmlns:xlink="http://www.w3.org/1999/xlink">
    <!-- Generator: Sketch 54.1 (76490) - https://sketchapp.com -->
    <title>按钮</title>
    <desc>Created with Sketch.</desc>
    <defs>
        <linearGradient x1="50%" y1="4.09564394%" x2="50%" y2="95.9107215%" id="linearGradient-1">
            <stop stop-color="#73A7E0" offset="0%"></stop>
            <stop stop-color="#5081B5" offset="48.8265702%"></stop>
            <stop stop-color="#396B9C" offset="100%"></stop>
        </linearGradient>
        <linearGradient x1="50%" y1="0%" x2="50%" y2="100%" id="linearGradient-2">
            <stop stop-color="#0E6F9D" offset="0%"></stop>
            <stop stop-color="#0E6F9D" offset="50.7979911%"></stop>
            <stop stop-color="#0E6F9D" offset="100%"></stop>
        </linearGradient>
        <linearGradient x1="50%" y1="4.09564394%" x2="50%" y2="95.9107215%" id="linearGradient-3">
            <stop stop-color="#73A7E0" offset="0%"></stop>
            <stop stop-color="#5081B5" offset="48.8265702%"></stop>
            <stop stop-color="#396B9C" offset="100%"></stop>
        </linearGradient>
        <linearGradient x1="50%" y1="0%" x2="50%" y2="100%" id="linearGradient-4">
            <stop stop-color="#61BFE5" offset="0%"></stop>
            <stop stop-color="#5FAED9" offset="50.7979911%"></stop>
            <stop stop-color="#396B9C" offset="100%"></stop>
        </linearGradient>
    </defs>
    <g id="按钮" stroke="none" stroke-width="1" fill="none" fill-rule="evenodd">
        <g>
            <path d="M4,0.5 C2.06700338,0.5 0.5,2.06700338 0.5,4 L0.5,29 C0.5,30.9329966 2.06700338,32.5 4,32.5 L87,32.5 C88.9329966,32.5 90.5,30.9329966 90.5,29 L90.5,4 C90.5,2.06700338 88.9329966,0.5 87,0.5 L4,0.5 Z" id="矩形复制-10" stroke="url(#linearGradient-2)" fill="url(#linearGradient-1)"></path>
            <path d="M5,1.5 C3.06700338,1.5 1.5,3.06700338 1.5,5 L1.5,28 C1.5,29.9329966 3.06700338,31.5 5,31.5 L86,31.5 C87.9329966,31.5 89.5,29.9329966 89.5,28 L89.5,5 C89.5,3.06700338 87.9329966,1.5 86,1.5 L5,1.5 Z" id="矩形复制-11" stroke="url(#linearGradient-4)" fill="url(#linearGradient-3)"></path>
            <text id="下一步" font-family="PingFangSC-Medium, PingFang SC" font-size="14" font-weight="400" line-spacing="14" fill="#FFFFFF">
                <tspan x="25" y="25">下一步</tspan>
            </text>
        </g>
    </g>
</svg>