<?xml version="1.0" encoding="UTF-8"?>
<svg width="108px" height="108px" viewBox="0 0 108 108" version="1.1" xmlns="http://www.w3.org/2000/svg" xmlns:xlink="http://www.w3.org/1999/xlink">
    <!-- Generator: Sketch 53.2 (72643) - https://sketchapp.com -->
    <title>channel</title>
    <desc>Created with Sketch.</desc>
    <g id="Page-1" stroke="none" stroke-width="1" fill="none" fill-rule="evenodd">
        <g id="channel" transform="translate(0.125000, 0.125000)" fill="#FFFFFF" fill-rule="nonzero">
            <polygon id="Path" points="72.7875 73.375 66.5375 73.375 66.5375 47.375 56.925 47.375 56.925 69.825 34.8375 69.825 34.8375 34.6375 41.0875 34.6375 41.0875 63.575 50.675 63.575 50.675 41.125 72.7875 41.125"></polygon>
            <path d="M41.0625,41.25 L34.8125,41.25 L34.8125,36.7625 L28,40.1125 L25.25,34.5 L41.0625,26.725 L41.0625,41.25 Z M66.475,81.225 L66.475,66.7125 L72.725,66.7125 L72.725,71.1875 L79.525,67.8375 L82.2875,73.45 L66.475,81.225 Z" id="Shape"></path>
            <path d="M53.8625,107.5125 C46.6125,107.5125 39.5625,106.0875 32.9375,103.2875 C26.5375,100.575 20.7875,96.7 15.85,91.775 C10.9125,86.85 7.0375,81.0875 4.3375,74.6875 C1.5375,68.0625 0.1125,61.025 0.1125,53.7625 C0.1125,46.5 1.5375,39.4625 4.3375,32.8375 C7.05,26.4375 10.925,20.6875 15.85,15.75 C20.7875,10.8125 26.5375,6.9375 32.9375,4.2375 C39.5625,1.4375 46.6,0.0125 53.8625,0.0125 C61.1125,0.0125 68.1625,1.4375 74.7875,4.2375 C81.1875,6.95 86.9375,10.825 91.875,15.75 C96.8125,20.6875 100.6875,26.4375 103.3875,32.8375 C106.1875,39.4625 107.6125,46.5 107.6125,53.7625 C107.6125,61.025 106.1875,68.0625 103.3875,74.6875 C100.675,81.0875 96.8,86.8375 91.875,91.775 C86.9375,96.7125 81.1875,100.5875 74.7875,103.2875 C68.15,106.1 61.1125,107.5125 53.8625,107.5125 Z M53.8625,6.2625 C47.45,6.2625 41.225,7.5125 35.375,10 C29.725,12.3875 24.6375,15.8125 20.275,20.175 C15.9125,24.5375 12.4875,29.6125 10.1,35.275 C7.625,41.125 6.3625,47.35 6.3625,53.7625 C6.3625,60.175 7.6125,66.4 10.1,72.25 C12.4875,77.9 15.9125,82.9875 20.275,87.35 C24.6375,91.7125 29.7125,95.1375 35.375,97.525 C41.225,100 47.45,101.2625 53.8625,101.2625 C60.275,101.2625 66.5,100.0125 72.35,97.525 C78,95.1375 83.0875,91.7125 87.45,87.35 C91.8125,82.9875 95.2375,77.9125 97.625,72.25 C100.1,66.4 101.3625,60.175 101.3625,53.7625 C101.3625,47.35 100.1125,41.125 97.625,35.275 C95.2375,29.625 91.8125,24.5375 87.45,20.175 C83.0875,15.8125 78.0125,12.3875 72.35,10 C66.4875,7.525 60.275,6.2625 53.8625,6.2625 Z" id="Shape"></path>
        </g>
    </g>
</svg>