<?xml version="1.0" standalone="no"?><!DOCTYPE svg PUBLIC "-//W3C//DTD SVG 1.1//EN" "http://www.w3.org/Graphics/SVG/1.1/DTD/svg11.dtd"><svg t="1556190948405" class="icon" style="" viewBox="0 0 1024 1024" version="1.1" xmlns="http://www.w3.org/2000/svg" p-id="4221" xmlns:xlink="http://www.w3.org/1999/xlink" width="200" height="200"><defs><style type="text/css"></style></defs><path d="M552.661333 770.56v-90.752c0-11.861333-5.802667-30.72 9.344-31.658667 18.517333-1.194667 37.376 2.304 55.594667-2.688 38.357333-10.538667 55.296-44.970667 55.296-82.133333V474.88c0-22.784 2.218667-45.653333-10.282667-66.048-19.84-32.170667-51.797333-37.333333-86.272-37.333333-4.608 0-18.602667 2.304-22.058666-0.597334-3.968-3.541333-1.621333-13.610667-1.621334-18.176v-104.533333c126.592 20.224 221.482667 135.296 221.482667 262.784 0 127.573333-95.488 239.488-221.482667 259.626667z m-118.570666-196.693333c-12.544 0-7.509333-29.013333-7.509334-36.906667V468.181333c0-5.973333-2.176-15.701333 1.28-20.821333 5.546667-8.021333 34.602667-3.328 43.690667-3.328h85.888c8.746667 0 38.4-5.12 40.704 6.016 2.901333 13.482667 0.128 30.72 0.128 44.544v59.605333c0 10.24 1.706667 19.626667-11.093333 19.626667h-153.088z m-186.496-62.933334c0-127.445333 94.848-242.602667 221.482666-262.741333v91.178667c0 8.277333 2.986667 22.272-0.64 29.866666-2.944 5.845333-31.146667 2.218667-37.632 2.218667-36.437333 0-71.594667 21.546667-80.426666 58.794667-3.84 16.298667-1.536 35.2-1.536 51.925333 0 30.122667-0.981333 60.458667 0 90.624 0 26.538667 14.464 51.626667 37.290666 65.066667 16.298667 9.557333 33.621333 10.24 51.882667 10.24 8.576 0 27.861333-4.266667 31.061333 5.461333 2.432 7.424 0 21.333333 0 29.226667v87.722666c-125.994667-20.053333-221.482667-132.010667-221.482666-259.584zM510.848 170.666667c-177.109333 0-328.448 141.824-339.541333 318.72-11.050667 176.896 120.832 337.066667 296.917333 359.125333 175.872 22.016 344.106667-99.712 377.002667-274.133333 16.042667-85.12-0.128-177.066667-46.677334-250.325334-45.226667-71.082667-117.418667-121.856-198.869333-142.464A362.282667 362.282667 0 0 0 510.890667 170.666667z" fill="#9A1F24" p-id="4222"></path></svg>