<?xml version="1.0" standalone="no"?><!DOCTYPE svg PUBLIC "-//W3C//DTD SVG 1.1//EN" "http://www.w3.org/Graphics/SVG/1.1/DTD/svg11.dtd"><svg t="1556191040576" class="icon" style="" viewBox="0 0 1024 1024" version="1.1" xmlns="http://www.w3.org/2000/svg" p-id="5030" xmlns:xlink="http://www.w3.org/1999/xlink" width="200" height="200"><defs><style type="text/css"></style></defs><path d="M876.97733 513.289673c0-92.856423-126.387909-170.236776-283.72796-170.236776-126.387909 0-232.141058 49.007557-268.251889 116.070529-2.579345 5.15869-5.15869 12.896725-5.15869 18.055415 0 15.476071 10.31738 33.531486 28.372796 41.269522l141.86398 82.539043c7.738035 2.579345 15.476071 5.15869 25.793451 5.15869 7.738035 0 18.055416-2.579345 25.793451-5.15869l136.705289-79.959698c7.738035-5.15869 12.896725-12.896725 12.896726-23.214106s-5.15869-15.476071-12.896726-23.214106l-49.007556-30.952141-113.491184 67.062972-85.118388-49.007556c33.531486-30.952141 92.856423-49.007557 165.078085-49.007557 103.173804 0 190.871537 43.848866 190.871537 98.015113-2.579345 85.118388-126.387909 152.18136-278.56927 144.443325-152.18136-2.579345-273.410579-77.380353-268.251889-162.49874 0-113.491184 149.602015-201.188917 327.576826-201.188917 15.476071 0 33.531486 0 46.428212 2.579345-36.110831-12.896725-82.539043-23.214106-134.125945-23.214106-41.269521 0-77.380353 5.15869-110.911838 12.896726-128.967254 43.848866-219.244332 126.387909-219.244333 221.823677 0 128.967254 165.078086 234.720403 366.267003 234.720403 198.609572 7.738035 361.108312-95.435768 361.108312-226.982367z" fill="#004186" p-id="5031"></path></svg>