<?xml version="1.0" standalone="no"?><!DOCTYPE svg PUBLIC "-//W3C//DTD SVG 1.1//EN" "http://www.w3.org/Graphics/SVG/1.1/DTD/svg11.dtd"><svg t="1556191433232" class="icon" style="" viewBox="0 0 1024 1024" version="1.1" xmlns="http://www.w3.org/2000/svg" p-id="9650" xmlns:xlink="http://www.w3.org/1999/xlink" width="200" height="200"><defs><style type="text/css"></style></defs><path d="M508.330667 175.914667H517.802667c107.52 0.128 213.12 54.4 276.096 153.301333a341.077333 341.077333 0 0 1 53.632 182.272v2.389333a336.597333 336.597333 0 0 1-17.92 107.477334l-0.426667-0.213334c-40.106667 117.333333-143.445333 204.672-268.586667 220.330667v0.042667c-10.709333 1.109333-21.504 1.706667-32.256 1.706666h-1.28a342.186667 342.186667 0 0 1-140.501333-31.018666c-85.632-45.098667-146.474667-131.754667-151.850667-234.666667a333.056 333.056 0 0 1-0.341333-17.408h0.085333c0-3.584 0.085333-7.125333 0.256-10.666667 0-0.682667 0-1.408 0.085334-2.133333a243.370667 243.370667 0 0 1 1.024-13.866667c4.266667-42.709333 17.92-83.029333 39.253333-118.442666l0.256-0.426667a228.778667 228.778667 0 0 1 14.165333-20.992l1.706667-2.346667a276.992 276.992 0 0 1 88.618667-76.245333c6.442667-3.370667 12.544-5.461333 19.285333-8.106667 4.096-1.194667 6.698667-2.048 9.386667-2.218666 0.426667 0 1.877333-0.085333 1.365333 0.896a239.189333 239.189333 0 0 0-79.957333 168.192 238.976 238.976 0 0 0 147.456 232.661333 214.272 214.272 0 0 0 99.84 16.938667 231.338667 231.338667 0 0 0 51.157333-8.405334c0.853333-0.170667 1.621333-0.426667 2.432-0.682666a231.978667 231.978667 0 0 0 13.952-4.522667 238.122667 238.122667 0 0 0 155.605333-201.258667l0.170667 0.085334v-2.090667a239.786667 239.786667 0 0 0-19.072-117.845333c-43.221333-118.613333-154.197333-203.562667-285.738667-206.08a850.773333 850.773333 0 0 0-68.181333 2.133333c30.336-7.765333 63.232-8.704 80.810667-8.789333z m-43.093334 206.165333a99.84 99.84 0 0 1 97.152-79.744c6.826667 0 13.781333 0.725333 20.736 2.218667h0.170667c107.733333 23.466667 176.298667 130.986667 153.173333 240.170666-21.333333 100.736-113.28 167.68-212.138666 159.018667-0.298667-0.64-0.426667-1.28-0.128-1.877333a100.181333 100.181333 0 0 0 94.122666-79.872c11.52-54.613333-22.826667-108.373333-76.714666-120.064h-0.256l0.042666-0.170667c-53.589333-11.818667-87.722667-65.322667-76.16-119.68zM313.557333 294.4c18.261333-7.466667 33.834667-10.496 47.146667-10.496a72.533333 72.533333 0 0 1 40.064 11.349333c-54.058667 16.810667-101.418667 46.933333-137.173333 89.514667-14.72 17.237333-29.909333 27.605333-46.293334 31.573333-16.384 3.968-32.725333 1.706667-46.634666-2.432 30.933333-9.557333 50.730667-33.493333 69.973333-57.088 19.498667-23.978667 39.68-48.725333 72.96-62.421333z" fill="#C9151E" p-id="9651"></path></svg>