<?xml version="1.0" standalone="no"?><!DOCTYPE svg PUBLIC "-//W3C//DTD SVG 1.1//EN" "http://www.w3.org/Graphics/SVG/1.1/DTD/svg11.dtd"><svg t="1556191285941" class="icon" style="" viewBox="0 0 1024 1024" version="1.1" xmlns="http://www.w3.org/2000/svg" p-id="7039" xmlns:xlink="http://www.w3.org/1999/xlink" width="200" height="200"><defs><style type="text/css"></style></defs><path d="M848.604534 301.783375l-28.372796-36.110831s-100.594458 18.055416-98.015113-41.269521c0 0 7.738035-41.269521-67.062973-23.214106 0 0-18.055416-18.055416-18.055415-23.214106 0 0 2.579345-23.214106-72.221663-10.31738 0 0-118.649874 12.896725-247.617128 159.919395 0 0-128.967254 108.332494-128.967255-2.579345 0 0-69.642317 72.221662-30.952141 128.967255 0 0 41.269521 59.324937 126.38791 10.31738 0 0-23.214106 198.609572 108.332493 304.36272 0 0 139.284635 128.967254 296.624686 85.118388 0 0 131.546599-28.372796 185.712846-159.919395 0 0-23.214106 23.214106-36.110831 20.63476 0 0 36.110831-41.269521 38.690176-61.904282 0 0 0-23.214106-20.634761 12.896726 0 0 2.579345-23.214106-10.31738-12.896726 0 0-69.642317 79.959698-100.594459 87.697733 0 0-224.403023 131.546599-324.997481-131.546599 0 0-41.269521-126.387909 59.324937-219.244333 100.594458-95.435768 203.768262-85.118388 294.04534-18.055415 0 0 46.428212-51.586902 67.062973-41.269522-2.579345-2.579345 15.476071-12.896725 7.738035-28.372796z" fill="#E60012" p-id="7040"></path><path d="M539.083123 459.123426h219.244333v167.65743h-219.244333z" fill="#E60012" p-id="7041"></path></svg>