<?xml version="1.0" standalone="no"?><!DOCTYPE svg PUBLIC "-//W3C//DTD SVG 1.1//EN" "http://www.w3.org/Graphics/SVG/1.1/DTD/svg11.dtd"><svg t="1556191420348" class="icon" style="" viewBox="0 0 1024 1024" version="1.1" xmlns="http://www.w3.org/2000/svg" p-id="9511" xmlns:xlink="http://www.w3.org/1999/xlink" width="200" height="200"><defs><style type="text/css"></style></defs><path d="M296.624685 229.561713s5.15869-5.15869 12.896726-7.738035c0 0-2.579345 7.738035-12.896726 7.738035 2.579345 2.579345 10.31738 2.579345 12.896726 10.31738 0 0-5.15869 5.15869-12.896726-2.579345 0 0 5.15869 7.738035-5.15869 12.896726 0 0-5.15869-2.579345 0-12.896726 0 0-7.738035 7.738035-12.896725 7.738035 0 0 0-5.15869 12.896725-10.31738 0 0-10.31738 0-10.31738-5.15869 0 0 5.15869-5.15869 12.896725 2.579345 0 0-5.15869-10.31738 2.579345-15.476071 0-5.15869 5.15869 2.579345 0 12.896726z m154.760705 147.02267c12.896725 5.15869 10.31738 10.31738 5.158691 12.896725-5.15869-2.579345-7.738035-2.579345-10.317381-5.15869 0 2.579345 5.15869 7.738035 2.579345 10.31738s-5.15869 0-7.738035-2.579345c0 0-2.579345-5.15869-2.579345-7.738035 0 0-10.31738 7.738035-15.476071 2.579345 0-5.15869 7.738035-7.738035 10.317381-7.738035-2.579345 0-12.896725-2.579345-12.896726-5.15869-2.579345-2.579345 0-2.579345 2.579345-2.579345 5.15869-2.579345 10.31738 0 15.476071 2.579345 0-2.579345-5.15869-7.738035-2.579345-10.317381h2.579345c2.579345 0 5.15869 2.579345 5.15869 2.579346 2.579345 2.579345 2.579345 5.15869 2.579345 7.738035 0-2.579345 7.738035-5.15869 7.738036-5.15869 5.15869-2.579345 10.31738 2.579345 5.15869 5.15869l-7.738036 2.579345z m-188.292191 64.483627c-5.15869 2.579345 2.579345 10.31738 2.579345 12.896726h-10.31738s5.15869-10.31738 0-12.896726c-10.31738-5.15869-23.214106 7.738035-28.372796 2.579345 7.738035-2.579345 10.31738-12.896725 18.055415-10.31738 2.579345 0 10.31738 5.15869 12.896726 5.15869v-7.738035c2.579345 0 2.579345 5.15869 5.15869 5.15869 0 0 7.738035-2.579345 15.476071-2.579345 5.15869 2.579345 12.896725 10.31738 12.896725 15.47607-15.476071-7.738035-28.372796-7.738035-28.372796-7.738035z m381.743073-54.166247c18.055416 15.476071 25.793451 7.738035 38.690176 18.055416 0-7.738035-7.738035-15.476071-10.31738-18.055416 20.634761 10.31738 23.214106 10.31738 18.055416 23.214106-2.579345 7.738035 10.31738-2.579345 18.055415 5.15869-5.15869 0-7.738035 2.579345-15.47607 5.15869-12.896725 7.738035-20.634761 0-28.372796 7.738036l-2.579345-5.158691s12.896725-2.579345 12.896725-7.738035c2.579345-5.15869-25.793451 0-30.952141-28.372796z m165.078086 49.007557c0-2.579345 0-7.738035 2.579345-12.896726 0 0-10.31738 0-10.317381 5.158691-2.579345 2.579345 5.15869 2.579345 7.738036 7.738035z m-247.617129-95.435768c-5.15869 0-10.31738 0-18.055415-2.579345 5.15869 2.579345 10.31738 10.31738 7.738035 12.896725 5.15869-2.579345 10.31738-7.738035 10.31738-10.31738z m-15.47607 15.47607c-5.15869 2.579345-10.31738 0-12.896726-2.579345 5.15869-2.579345 5.15869-5.15869 5.15869-7.738035 0 5.15869 2.579345 7.738035 7.738036 10.31738z m-20.634761-12.896725z m-255.355164 59.324937c-7.738035-10.31738-2.579345-12.896725 2.579345-10.317381 2.579345 2.579345 2.579345 5.15869 5.158691 7.738036 0-2.579345 0-7.738035 5.15869-10.317381 2.579345 0 5.15869 2.579345 5.15869 5.15869v7.738036s10.31738 0 12.896725 5.15869c-2.579345 2.579345-2.579345 0-12.896725 2.579345 5.15869 0 10.31738 7.738035 5.15869 10.31738-5.15869 2.579345-7.738035-2.579345-10.31738-7.738035 0 2.579345 2.579345 7.738035-2.579345 10.31738-2.579345 0-5.15869-2.579345-5.158691-5.15869s0-5.15869 2.579346-7.738035c-7.738035 5.15869-15.476071-7.738035-7.738036-7.738035z m273.41058 2.579345c-12.896725-2.579345-25.793451 12.896725-25.793451 12.896725 2.579345-12.896725 2.579345-12.896725 5.15869-15.47607 2.579345-5.15869 18.055416-2.579345 18.055416-5.15869v-7.738036l5.15869 2.579345c5.15869 0 5.15869-10.31738 12.896725-12.896725 7.738035-2.579345 12.896725 0 20.634761 2.579345-15.476071 2.579345-25.793451 10.31738-23.214106 18.055416 0 2.579345 5.15869 5.15869 5.15869 5.15869l-12.896725 7.738035c0 2.579345 0-2.579345-5.15869-7.738035z m-28.372796-15.476071c2.579345-2.579345 0-2.579345 0-5.15869l-2.579345-5.15869 2.579345-2.579345 5.15869 2.579345s0 2.579345 2.579345 2.579345h2.579345s0-2.579345-2.579345-2.579345h-2.579345l-7.738035-2.579345v-5.15869l5.15869-2.579345h2.579345s2.579345 0 2.579345-2.579345c0 0-2.579345-2.579345-2.579345 0 0 0 0 2.579345-2.579345 2.579345l-5.15869 2.579345c0-2.579345-2.579345-2.579345-2.579346-2.579345l2.579346-5.158691s2.579345 0 2.579345-2.579345v-2.579345h-2.579345v2.579345l-2.579346 5.158691s-2.579345-2.579345-5.15869-2.579346v-5.15869l2.579345-2.579345s0-2.579345-2.579345-2.579345c0 0-2.579345 0-2.579345 2.579345l2.579345 2.579345v5.15869c-2.579345 0-2.579345 0-5.15869 2.579346l-2.579345-5.158691v-2.579345h-2.579345v2.579345s2.579345 0 2.579345 2.579345l2.579345 5.158691-2.579345 2.579345-5.15869-2.579345s0-2.579345-2.579345-2.579345h-2.579345s0 2.579345 2.579345 2.579345h2.579345l5.15869 2.579345v5.15869l-5.15869 2.579345h-2.579345s-2.579345 0-2.579345 2.579345c0 0 2.579345 2.579345 2.579345 0 0 0 0-2.579345 2.579345-2.579345l5.15869-2.579345c0 2.579345 2.579345 2.579345 2.579345 2.579345l-2.579345 5.15869h-2.579345v2.579345h2.579345v-2.579345l2.579345-5.15869s2.579345 2.579345 5.15869 2.579345v5.15869l-2.579345 2.579345s0 2.579345 2.579345 2.579345c0 0 2.579345 0 2.579345-2.579345l-2.579345-2.579345v-5.15869h5.15869l2.579346 5.15869c2.579345 0 0 0 2.579345 2.579345z m-134.125945 15.476071c0-2.579345 0-2.579345 0 0l-5.15869-7.738035h-5.15869v5.15869l2.579345 2.579345s0 2.579345-2.579345 2.579345-2.579345 0-2.579345-2.579345 2.579345-2.579345 2.579345-2.579345v-5.15869c-2.579345 0-2.579345 0-5.15869-2.579346l-5.158691 5.158691v2.579345s-2.579345 2.579345-2.579345 0v-2.579345h2.579345l5.158691-5.158691-2.579346-2.579345-7.738035 2.579345s0 2.579345-2.579345 2.579346h-2.579345s0-2.579345 2.579345-2.579346h2.579345l7.738035-2.579345v-2.579345l-7.738035-2.579345h-2.579345s-2.579345 0-2.579345-2.579345c0 0 2.579345-2.579345 2.579345 0 2.579345 0 2.579345 2.579345 2.579345 2.579345l7.738035 2.579345c0-2.579345 2.579345-2.579345 2.579346-2.579345l-5.158691-5.15869s-2.579345 0-2.579345-2.579345v-2.579345h2.579345v2.579345l5.158691 5.15869c2.579345 0 2.579345-2.579345 5.15869-2.579345v-5.15869l-2.579345-2.579345s0-2.579345 2.579345-2.579345 2.579345 0 2.579345 2.579345-2.579345 2.579345-2.579345 2.579345v5.15869c2.579345 0 2.579345 0 5.15869 2.579345l5.15869-5.15869v-2.579345s2.579345-2.579345 2.579345 0v2.579345h-2.579345l-5.15869 5.15869c2.579345 0 2.579345 2.579345 2.579345 2.579345l7.738035-2.579345s0-2.579345 2.579345-2.579345h2.579345s0 2.579345-2.579345 2.579345h-2.579345l-7.738035 2.579345v5.15869l7.738035 2.579345h2.579345s2.579345 0 2.579345 2.579346c0 0-2.579345 2.579345-2.579345 0-2.579345 0-2.579345-2.579345-2.579345-2.579346l-7.738035-2.579345c0 2.579345-2.579345 2.579345-2.579345 2.579345l5.15869 5.158691s2.579345 0 2.579345 2.579345l-2.579345 2.579345c0 5.15869 0 5.15869 0 0z m-43.848866 18.055415c10.31738 5.15869 7.738035 7.738035 5.15869 10.317381-5.15869 0-5.15869-2.579345-7.738036-5.15869 0 2.579345 2.579345 5.15869 0 7.738035-2.579345 2.579345-5.15869 0-5.15869-2.579345 0 0-2.579345-2.579345-2.579345-5.15869 0 0-7.738035 5.15869-10.31738 2.579345 0-2.579345 5.15869-5.15869 7.738035-7.738036-2.579345 0-10.31738-2.579345-10.31738-2.579345-2.579345-2.579345 0-2.579345 0-2.579345 5.15869-2.579345 7.738035 0 12.896725 2.579345 0-2.579345-5.15869-5.15869 0-7.738035h2.579345c2.579345 0 2.579345 0 5.15869 2.579345s2.579345 5.15869 2.579346 7.738035c0-5.15869 2.579345-5.15869 2.579345-5.15869 5.15869-2.579345 7.738035 2.579345 5.15869 5.15869h-7.738035z m410.115869-131.546599c2.579345-5.15869 5.15869-7.738035 7.738035-7.738035 2.579345 2.579345 0 7.738035-7.738035 7.738035 7.738035 0 12.896725 0 12.896725 2.579345s-5.15869 5.15869-12.896725-2.579345c7.738035 7.738035 7.738035 12.896725 5.15869 12.896725-2.579345 0-5.15869-2.579345-5.15869-12.896725-2.579345 10.31738-5.15869 10.31738-7.738036 10.31738-2.579345-2.579345-2.579345-5.15869 5.15869-10.31738-7.738035 2.579345-10.31738 0-10.31738-2.579345s5.15869-2.579345 10.31738 0c-2.579345-2.579345-5.15869-7.738035 0-10.31738 0 2.579345 2.579345 7.738035 2.579346 12.896725z m113.491183 113.491184c5.15869-5.15869 12.896725-7.738035 15.476071-2.579345 5.15869 5.15869-5.15869 7.738035-12.896725 7.738035 7.738035 0 15.476071 5.15869 12.896725 10.31738-2.579345 5.15869-10.31738 2.579345-15.476071-7.738035 5.15869 7.738035 2.579345 15.476071-2.579345 12.896726-5.15869 0-7.738035-7.738035-2.579345-15.476071-5.15869 7.738035-12.896725 7.738035-15.47607 5.15869-2.579345-5.15869 0-7.738035 12.896725-7.738035-10.31738-2.579345-15.476071-7.738035-12.896725-10.31738 2.579345-2.579345 10.31738 0 15.47607 5.15869-2.579345-5.15869-2.579345-12.896725 5.15869-12.896726 5.15869 2.579345 7.738035 10.31738 0 15.476071z m-36.110831-51.586902c2.579345-7.738035 7.738035-10.31738 10.317381-10.31738 5.15869 2.579345 2.579345 7.738035-10.317381 10.31738 10.31738-2.579345 15.476071-2.579345 15.476071 2.579345s-7.738035 5.15869-15.476071-2.579345c7.738035 7.738035 10.31738 15.476071 5.15869 15.476071-5.15869 2.579345-7.738035-2.579345-5.15869-15.476071-2.579345 10.31738-7.738035 15.476071-10.31738 12.896726-2.579345-2.579345-2.579345-7.738035 10.31738-12.896726-10.31738 2.579345-15.476071 0-15.47607-2.579345 0-5.15869 7.738035-5.15869 15.47607-2.579345-2.579345-2.579345-7.738035-10.31738 0-12.896726 0 5.15869 5.15869 7.738035 0 18.055416z m-152.18136-61.904282c7.738035-7.738035 18.055416-10.31738 23.214106-5.15869 5.15869 7.738035-7.738035 10.31738-18.055416 10.31738 10.31738 2.579345 20.634761 7.738035 15.476071 12.896726s-12.896725 2.579345-20.634761-7.738036c5.15869 10.31738 0 20.634761-5.15869 20.634761-7.738035 0-7.738035-10.31738 0-20.634761-7.738035 10.31738-18.055416 10.31738-20.634761 7.738036-5.15869-5.15869 0-12.896725 18.055416-12.896726-12.896725-2.579345-20.634761-7.738035-18.055416-12.896725 5.15869-5.15869 12.896725 0 20.634761 7.738035-2.579345-5.15869-2.579345-20.634761 7.738035-18.055416 2.579345 0 5.15869 7.738035-2.579345 18.055416z m-141.86398-98.015113c2.579345-5.15869 7.738035-10.31738 10.317381-7.738036 5.15869 0 0 7.738035-10.317381 7.738036 10.31738 0 15.476071 2.579345 15.476071 5.15869s-5.15869 5.15869-12.896726 0c5.15869 5.15869 7.738035 10.31738 2.579345 10.31738s-7.738035-2.579345-7.738035-10.31738c0 7.738035-7.738035 10.31738-10.31738 7.738035-5.15869-2.579345-5.15869-5.15869 5.15869-10.31738-7.738035 2.579345-12.896725 0-12.896726-2.579345s7.738035-2.579345 15.476071 0c-5.15869-2.579345-7.738035-7.738035-2.579345-10.317381 5.15869-2.579345 7.738035 2.579345 7.738035 10.317381z m-118.649874 54.166246c0-5.15869-15.476071-15.476071-25.793451-15.47607 12.896725-5.15869 18.055416-2.579345 18.055416-2.579345 7.738035 2.579345 10.31738 15.476071 15.47607 12.896725 2.579345 0 5.15869-5.15869 5.158691-5.15869v7.738035c0 5.15869 15.476071 0 20.63476 5.158691 0 0 5.15869 5.15869 7.738036 18.055415-7.738035-12.896725-23.214106-18.055416-30.952142-15.47607-2.579345 2.579345 0 7.738035 0 7.738035-2.579345-5.15869-7.738035-7.738035-12.896725-7.738035-2.579345 0 2.579345-2.579345 2.579345-5.158691z m64.483627 56.745592c2.579345-10.31738 12.896725-18.055416 18.055416-15.47607 7.738035 5.15869-2.579345 12.896725-12.896726 18.055415 10.31738-2.579345 23.214106-2.579345 23.214106 5.158691s-10.31738 7.738035-23.214106 2.579345c10.31738 7.738035 10.31738 18.055416 5.158691 20.63476-7.738035 2.579345-12.896725-5.15869-10.317381-18.055415-2.579345 12.896725-12.896725 18.055416-18.055415 15.47607-7.738035-2.579345-5.15869-10.31738 12.896725-18.055415-15.476071 5.15869-23.214106 2.579345-23.214106-2.579345s12.896725-7.738035 23.214106-2.579345c-7.738035-2.579345-10.31738-15.476071-2.579345-18.055416 5.15869-7.738035 12.896725 0 7.738035 12.896725z m-113.491184-7.738035c-2.579345-5.15869-2.579345-10.31738 0-10.31738 5.15869 0 5.15869 5.15869 0 10.31738 5.15869-5.15869 10.31738-7.738035 12.896726-5.15869 2.579345 2.579345 0 7.738035-10.31738 7.738035 7.738035 0 12.896725 2.579345 10.31738 7.738035-2.579345 2.579345-7.738035 2.579345-12.896726-5.15869 5.15869 5.15869 2.579345 10.31738 0 10.317381-5.15869 0-7.738035-2.579345-2.579345-10.317381-5.15869 5.15869-10.31738 7.738035-10.31738 5.15869 0-5.15869 2.579345-7.738035 12.896725-10.31738-7.738035 2.579345-12.896725 0-10.31738-5.15869 0-2.579345 5.15869-2.579345 10.31738 5.15869z m-116.070529 23.214106c0-5.15869 5.15869-10.31738 7.738036-7.738035 2.579345 2.579345 0 5.15869-7.738036 7.738035 7.738035 0 12.896725 0 12.896726 5.15869 0 2.579345-5.15869 5.15869-10.31738 0 5.15869 5.15869 5.15869 10.31738 2.579345 10.31738s-5.15869-2.579345-5.158691-10.31738c0 7.738035-5.15869 10.31738-7.738035 7.738035-2.579345-2.579345-2.579345-5.15869 5.15869-10.31738-5.15869 2.579345-10.31738 0-10.31738-2.579345s5.15869-2.579345 10.31738 0c-2.579345-2.579345-5.15869-10.31738-2.579345-10.31738 0 0 5.15869 2.579345 5.15869 10.31738z m-67.062972 12.896725c0-7.738035 5.15869-10.31738 7.738035-10.31738 5.15869 2.579345 0 7.738035-5.15869 10.31738 5.15869-2.579345 12.896725-2.579345 12.896726 2.579345s-5.15869 5.15869-12.896726 2.579346c7.738035 5.15869 7.738035 10.31738 5.15869 10.31738-2.579345 2.579345-7.738035-2.579345-7.738035-10.31738 0 7.738035-5.15869 10.31738-7.738035 10.31738-5.15869-2.579345-5.15869-5.15869 5.15869-12.896726-7.738035 2.579345-12.896725 2.579345-12.896725 0s5.15869-5.15869 12.896725-2.579345c-5.15869 0-10.31738-7.738035-5.15869-7.738035 2.579345-2.579345 7.738035 0 7.738035 7.738035z m69.642318 28.372796c5.15869-10.31738 12.896725-15.476071 18.055415-10.31738 7.738035 5.15869-2.579345 12.896725-12.896725 15.476071 10.31738-2.579345 20.634761 0 20.63476 7.738035-2.579345 5.15869-10.31738 7.738035-20.63476-2.579345 7.738035 7.738035 7.738035 18.055416 2.579345 18.055415-7.738035 0-10.31738-5.15869-7.738035-18.055415-2.579345 10.31738-12.896725 15.476071-15.476071 12.896725-5.15869-5.15869-5.15869-10.31738 12.896725-15.47607-12.896725 2.579345-20.634761-2.579345-20.63476-7.738036 0-5.15869 12.896725-5.15869 23.214106 0-7.738035-2.579345-10.31738-12.896725-2.579346-15.47607 0-5.15869 5.15869 0 2.579346 15.47607z m-79.959698 64.483628c-5.15869 0-18.055416 12.896725-20.634761 23.214105-5.15869-10.31738-2.579345-15.476071-2.579345-15.47607 2.579345-7.738035 18.055416-10.31738 18.055416-12.896726 0-2.579345-2.579345-7.738035-2.579345-7.738035l7.738035 2.579345c5.15869 0 0-15.476071 7.738035-18.055415 0 0 5.15869-5.15869 20.634761-5.158691-12.896725 5.15869-20.634761 20.634761-18.055416 28.372796 2.579345 2.579345 7.738035 2.579345 7.738035 2.579345-5.15869 2.579345-7.738035 7.738035-10.31738 12.896726-2.579345 0-5.15869-10.31738-7.738035-10.31738z m412.695214-154.760706c-2.579345-2.579345-23.214106 7.738035-23.214106 7.738036 2.579345-5.15869 5.15869-12.896725 5.15869-12.896726 5.15869-2.579345 12.896725 0 15.476071-2.579345v-5.15869l5.15869 2.579345c2.579345 0 7.738035-7.738035 12.896725-7.738035 0 0 7.738035 5.15869 15.476071 5.15869-10.31738 0-23.214106 5.15869-23.214106 10.31738 0 2.579345 5.15869 5.15869 5.15869 5.15869l-12.896725 5.158691s5.15869-5.15869 0-7.738036z m198.609572 12.896726c15.476071 18.055416 23.214106 10.31738 33.531486 20.63476 0-7.738035-7.738035-18.055416-7.738035-20.63476 18.055416 10.31738 20.634761 12.896725 15.47607 23.214105-2.579345 7.738035 10.31738-2.579345 18.055416 7.738036-5.15869 0-7.738035 2.579345-12.896726 5.15869-12.896725 5.15869-18.055416-2.579345-25.793451 2.579345l-7.738035-2.579345s12.896725-2.579345 12.896726-5.15869c2.579345-2.579345-25.793451-2.579345-25.793451-30.952141z m-392.060454 12.896725c-5.15869-10.31738-10.31738-10.31738-12.896725-7.738035-5.15869 5.15869 5.15869 10.31738 10.31738 12.896725-10.31738 0-15.476071 5.15869-12.896725 10.317381s10.31738 2.579345 15.47607-5.158691c-7.738035 12.896725-2.579345 18.055416 2.579345 18.055416 2.579345 0 7.738035-7.738035 2.579345-15.47607 5.15869 10.31738 12.896725 12.896725 15.476071 7.738035 2.579345-5.15869-2.579345-10.31738-12.896725-12.896726 10.31738 0 15.476071-5.15869 12.896725-10.31738-2.579345-5.15869-10.31738-2.579345-15.476071 5.15869 5.15869-7.738035 5.15869-15.476071 0-15.47607-7.738035-2.579345-10.31738 2.579345-5.15869 12.896725z m206.347607 46.428212c-5.15869-7.738035-12.896725-15.476071-23.214105-12.896726-2.579345 0-5.15869 2.579345-7.738036 5.15869 0-2.579345-7.738035-7.738035-20.63476-2.579345 5.15869-5.15869 10.31738-18.055416 2.579345-20.63476-5.15869-2.579345-10.31738 7.738035-12.896726 18.055415-2.579345-10.31738-10.31738-18.055416-15.47607-15.47607-5.15869 2.579345-2.579345 12.896725 5.15869 18.055415-10.31738 0-15.476071 0-20.634761 5.158691 0 2.579345-2.579345 5.15869 2.579345 7.738035-5.15869 0-7.738035 0-10.31738 2.579345-2.579345 0-7.738035 0-7.738035 7.738035s-5.15869 5.15869-5.158691 2.579345c2.579345-7.738035 2.579345-18.055416 2.579346-18.055415-7.738035 2.579345-12.896725 15.476071-12.896726 25.793451 0 2.579345-2.579345 2.579345-2.579345 0 2.579345-12.896725-2.579345-20.634761-7.738035-25.793451 0 2.579345 0 2.579345-2.579345 5.15869 0-2.579345-2.579345-5.15869-5.15869-5.15869 2.579345 12.896725-2.579345 15.476071 2.579345 28.372796-10.31738-2.579345-5.15869-15.476071-15.476071-20.634761 0 5.15869-7.738035 7.738035-10.31738 5.15869 2.579345 0 7.738035-2.579345 7.738035-5.15869-2.579345-2.579345-5.15869-2.579345-10.31738-2.579345 2.579345 0 5.15869-2.579345 7.738035-5.15869-5.15869 0-5.15869-5.15869-2.579345-7.738036h-5.15869v-5.15869s-2.579345 0-2.579345 2.579345v-5.15869c-2.579345 0-2.579345 2.579345-5.158691 5.15869v-5.15869c-5.15869 2.579345-5.15869 7.738035-7.738035 10.31738 0-2.579345-2.579345-5.15869-2.579345-5.15869s-2.579345 2.579345-2.579345 7.738036c0 0 0-5.15869-2.579345-5.158691-2.579345 5.15869-2.579345 10.31738 2.579345 18.055416 2.579345 2.579345 5.15869 2.579345 5.15869 5.15869 2.579345 10.31738-15.476071 12.896725-15.47607 12.896726 5.15869-5.15869 10.31738-12.896725 7.738035-18.055416-5.15869 0-7.738035 5.15869-10.317381 7.738035 0-2.579345 2.579345-10.31738 2.579346-15.47607-5.15869 2.579345-7.738035 7.738035-7.738036 10.31738 0-5.15869 0-5.15869-2.579345-7.738035-5.15869-5.15869-18.055416-7.738035-23.214106 7.738035 0-2.579345-7.738035-5.15869-7.738035-5.15869 0 5.15869 2.579345 10.31738 5.15869 12.896725-5.15869-7.738035-10.31738-10.31738-12.896725-10.31738 0 5.15869 5.15869 10.31738 7.738035 15.476071-10.31738-10.31738-18.055416-2.579345-18.055415 2.579345 0-10.31738-7.738035-15.476071-7.738036-15.476071-10.31738 12.896725-5.15869 23.214106-2.579345 25.793451-2.579345 10.31738-15.476071 5.15869-10.31738-2.579345 2.579345-2.579345-2.579345-10.31738-12.896726-2.579345 12.896725-10.31738-7.738035-18.055416-7.738035-2.579345-2.579345-15.476071-23.214106-2.579345-7.738035 5.15869-15.476071-5.15869-18.055416 12.896725 0 7.738035-2.579345 2.579345-5.15869 7.738035 0 10.31738 5.15869 2.579345 7.738035-5.15869 7.738035-7.738035 2.579345 5.15869 7.738035 7.738035 12.896726 5.15869 2.579345-2.579345 5.15869 0 5.15869 2.579345s-2.579345 5.15869-10.317381 2.579346c2.579345 12.896725-7.738035 15.476071-12.896725 7.738035-2.579345-5.15869-18.055416-7.738035-18.055416-7.738035 2.579345 7.738035-10.31738 23.214106-18.055415 15.47607-2.579345-2.579345 2.579345-7.738035 2.579345-7.738035 7.738035-7.738035-18.055416-12.896725-18.055416-2.579345-2.579345 0-7.738035-2.579345-10.31738 0 5.15869-2.579345 7.738035-12.896725 5.15869-12.896726-5.15869-2.579345-10.31738 5.15869-10.31738 10.317381 0-7.738035-5.15869-15.476071-10.317381-12.896726-5.15869 2.579345-2.579345 10.31738 2.579345 15.476071-7.738035-2.579345-15.476071-5.15869-15.47607 0-2.579345 5.15869 10.31738 7.738035 15.47607 5.15869-5.15869 5.15869-7.738035 15.476071-2.579345 15.47607 5.15869 2.579345 10.31738-2.579345 10.317381-10.31738 0 2.579345 0 5.15869 2.579345 7.738035-2.579345 2.579345-5.15869 7.738035-10.317381 10.317381-10.31738 5.15869-15.476071 2.579345-15.47607 10.31738 0 5.15869 10.31738 5.15869 18.055415-2.579345 10.31738-10.31738 18.055416 7.738035 7.738036 12.896725-2.579345 2.579345-7.738035 0-10.317381-2.579345-12.896725-2.579345-12.896725 7.738035 0 15.476071l294.04534 203.768262 275.989925-196.030227c2.579345-2.579345 5.15869-5.15869 10.31738-7.738035l18.055416 2.579345s-5.15869-5.15869-2.579345-10.31738 12.896725-10.31738 36.110831-5.158691c-7.738035-10.31738-10.31738-12.896725-10.31738-12.896725-7.738035-2.579345-12.896725 2.579345-20.634761 2.579345 0-2.579345-2.579345-2.579345-5.15869-2.579345l-5.15869-5.15869s0 2.579345-5.158691 7.738035c-10.31738 2.579345-23.214106 5.15869-20.63476-2.579345 0-7.738035 2.579345-7.738035 10.31738-7.738035 2.579345 0 7.738035 0 12.896726-2.579345 0 0 2.579345 0 2.579345-2.579345 0 2.579345 2.579345 5.15869 7.738035 2.579345 5.15869-2.579345 5.15869-7.738035 2.579345-15.476071 2.579345 5.15869 12.896725 12.896725 15.47607 10.31738 2.579345-2.579345-2.579345-10.31738-10.31738-15.47607 0 0 15.476071 0 15.476071-7.738035s-15.476071-2.579345-18.055416 0c2.579345-5.15869 2.579345-15.476071-2.579345-15.476071s-7.738035 10.31738-5.15869 15.476071c-2.579345-10.31738-12.896725-15.476071-15.476071-10.317381s5.15869 12.896725 10.317381 15.476071c-12.896725 2.579345-15.476071 12.896725-28.372796 10.31738 7.738035-5.15869 10.31738-12.896725 5.15869-15.47607-2.579345-5.15869-12.896725-2.579345-15.476071 7.738035 0-7.738035-5.15869-10.31738-7.738035-7.738035-2.579345 2.579345 0 7.738035-2.579345 10.31738h2.579345c7.738035 0 2.579345 10.31738-5.15869 18.055416 7.738035-7.738035 20.634761-10.31738 20.634761-5.158691 2.579345 5.15869-7.738035 12.896725-20.634761 10.317381 10.31738 2.579345 15.476071 10.31738 10.31738 15.47607-5.15869 5.15869-12.896725 0-15.47607-10.31738 2.579345 10.31738-5.15869 18.055416-10.317381 18.055416-7.738035 0-10.31738-5.15869 5.15869-20.634761-10.31738 10.31738-20.634761 10.31738-20.63476 5.15869s7.738035-10.31738 20.63476-10.31738c-7.738035 0-15.476071-7.738035-7.738035-15.476071 5.15869-2.579345 12.896725-2.579345 12.896726 10.317381 0-5.15869 0-10.31738 2.579345-12.896726 5.15869-7.738035 5.15869-18.055416 2.579345-20.634761-2.579345 5.15869-12.896725 5.15869-12.896726 5.158691-10.31738 5.15869-10.31738 12.896725-12.896725 2.579345-2.579345-7.738035 7.738035-7.738035 12.896725-7.738036l2.579345 5.158691c12.896725-7.738035 18.055416 5.15869 38.690177-2.579346 10.31738-2.579345 12.896725-7.738035 20.634761-5.15869-7.738035-12.896725-28.372796-2.579345-23.214106-12.896725 7.738035-12.896725 5.15869-18.055416-18.055416-36.110831 2.579345 2.579345 10.31738 18.055416 7.738035 28.372796-10.31738-18.055416-23.214106-7.738035-43.848866-36.110832 0 41.269521 36.110831 41.269521 33.531486 46.428212 0 2.579345-7.738035 5.15869-12.896725 5.15869v-2.579345c0-2.579345-5.15869-12.896725-15.476071-15.47607-7.738035-2.579345-15.476071 2.579345-20.634761 7.738035-7.738035 10.31738-33.531486 7.738035-28.372796-2.579345 2.579345-2.579345 7.738035 0 10.317381-2.579345-2.579345 0 0-2.579345-5.15869-5.158691 2.579345 0 5.15869-2.579345 5.15869-2.579345-2.579345 0-5.15869 0-5.15869-2.579345 0 0 5.15869 0 5.15869-2.579345 0-5.15869-10.31738-2.579345-7.738036-5.15869 5.15869-2.579345 0-7.738035-2.579345-7.738035-5.15869 2.579345-10.31738 5.15869-15.47607 5.15869 0 0 10.31738-5.15869 15.47607-15.476071-7.738035 0-5.15869-7.738035-2.579345-7.738035-10.31738 0-18.055416 18.055416-23.214106 18.055416 5.15869-10.31738 5.15869-18.055416 5.158691-23.214106-5.15869 2.579345-10.31738 12.896725-12.896726 18.055416 0 5.15869-5.15869 5.15869-5.15869 0-2.579345-10.31738-7.738035-15.476071-10.31738-15.476071-2.579345 2.579345-2.579345 7.738035-2.579345 15.476071-2.579345-7.738035-5.15869-10.31738-7.738036-12.896726-10.31738 10.31738-10.31738 23.214106-10.31738 23.214106 2.579345-5.15869 7.738035-5.15869 10.31738-5.15869 5.15869 2.579345 0 10.31738-10.31738 12.896725 7.738035-2.579345 18.055416-2.579345 18.055416 2.579345s-7.738035 7.738035-18.055416 0c7.738035 5.15869 7.738035 12.896725 2.579345 15.476071s-10.31738-2.579345-7.738035-12.896726c-2.579345 10.31738-10.31738 12.896725-12.896726 12.896726-5.15869-2.579345-5.15869-7.738035 10.317381-15.476071-10.31738 2.579345-18.055416 0-18.055416-2.579345 0-5.15869 10.31738-5.15869 18.055416-2.579345-12.896725 0-15.476071-7.738035-10.317381-10.31738z m-64.483627-67.062973c2.579345 5.15869-7.738035 10.31738-7.738035 10.317381l18.055416 7.738035s0-7.738035 2.579345-10.31738c5.15869-7.738035 23.214106 2.579345 38.690176 12.896725-5.15869-12.896725-10.31738-23.214106-10.31738-23.214106-7.738035-7.738035-23.214106 0-25.793451-2.579345v-7.738035s-5.15869 5.15869-7.738036 5.15869c-5.15869-2.579345-12.896725-15.476071-23.214105-15.47607 0 0-10.31738 5.15869-20.634761 7.738035 0-2.579345 30.952141 5.15869 36.110831 15.47607z m136.70529-33.531486c5.15869-2.579345 12.896725-2.579345 12.896725 0 0 5.15869-5.15869 5.15869-12.896725 0 5.15869 5.15869 10.31738 10.31738 5.15869 12.896726-2.579345 2.579345-7.738035 0-10.31738-7.738036 0 7.738035-2.579345 10.31738-7.738036 10.317381-2.579345-2.579345-2.579345-7.738035 2.579345-10.317381-7.738035 2.579345-12.896725 2.579345-12.896725 0 0-5.15869 2.579345-7.738035 12.896725-2.579345-7.738035-2.579345-10.31738-7.738035-7.738035-10.31738 2.579345-2.579345 7.738035 2.579345 10.317381 7.738035 0-5.15869 2.579345-10.31738 7.738035-7.738035 7.738035 0 7.738035 5.15869 0 7.738035z m-397.219144 64.483627c12.896725 30.952141 38.690176 20.634761 38.690177 23.214106 0 5.15869-12.896725 10.31738-12.896726 10.317381l5.15869 5.15869c5.15869-10.31738 15.476071-2.579345 28.372796-12.896726 5.15869-5.15869 7.738035-10.31738 12.896726-10.31738-10.31738-7.738035-23.214106 5.15869-20.634761-2.579345 2.579345-12.896725 0-15.476071-23.214106-20.634761 2.579345 2.579345 12.896725 10.31738 15.476071 18.055416-15.476071-7.738035-20.634761 5.15869-43.848867-10.317381z" fill="#0065C1" p-id="9512"></path><path d="M523.607053 789.279597c0 20.634761-10.31738 41.269521-30.952141 41.269521-25.793451 0-33.531486-20.634761-33.531486-41.269521s7.738035-41.269521 33.531486-41.269521c23.214106 2.579345 30.952141 23.214106 30.952141 41.269521z m-74.801008 49.007557h10.317381v-18.055416c5.15869 12.896725 18.055416 20.634761 33.531486 20.634761 28.372796 0 41.269521-23.214106 41.269521-51.586902s-12.896725-51.586902-41.269521-51.586902c-12.896725 0-28.372796 7.738035-33.531486 20.634761v-54.166247h-12.896726v134.125945h2.579345zM616.463476 799.596977c0 15.476071-12.896725 28.372796-33.531486 28.372796-10.31738 0-20.634761-7.738035-20.634761-18.055415 0-23.214106 18.055416-23.214106 36.110831-28.372796 7.738035 0 15.476071-5.15869 15.476071-5.15869l2.579345 23.214105z m-61.904282-43.848866s15.476071-5.15869 33.531486-5.15869c12.896725 0 23.214106 2.579345 23.214106 12.896725 0 7.738035-7.738035 10.31738-28.372796 12.896726-20.634761 2.579345-36.110831 12.896725-36.110831 33.531486 0 18.055416 15.476071 30.952141 33.531486 30.952141 18.055416 0 28.372796-7.738035 33.531486-18.055416v15.476071h10.31738v-67.062973c0-25.793451-18.055416-30.952141-36.110831-30.952141-23.214106 0-36.110831 7.738035-36.110831 7.738036l2.579345 7.738035zM239.879093 838.287154h20.634761v-56.745592c0-12.896725 10.31738-25.793451 23.214106-25.793451s18.055416 5.15869 18.055415 20.634761v59.324937h20.634761v-64.483628c0-20.634761-12.896725-30.952141-33.531486-30.952141-12.896725 0-23.214106 5.15869-28.372796 12.896726v-43.848867h-20.634761v128.967255zM345.632242 758.327456h51.586902l-54.166247 64.483627v15.476071h85.118388v-18.055416h-56.745592l54.166247-61.904282v-15.476071h-79.959698zM644.836272 838.287154h12.896725v-56.745592c0-18.055416 12.896725-33.531486 28.372796-33.531486 18.055416 0 23.214106 12.896725 23.214106 28.372796v59.324937h12.896726V776.382872c0-23.214106-7.738035-36.110831-33.531486-36.110832-12.896725 0-25.793451 7.738035-30.952142 18.055416v-15.476071h-12.896725v95.435769zM740.27204 838.287154h12.896726V802.176322l15.47607-15.47607 38.690177 51.586902h15.47607l-43.848866-61.904282 41.269521-33.531487h-15.47607l-51.586902 46.428212v-82.539043h-12.896726z" fill="#717071" p-id="9513"></path></svg>