<?xml version="1.0" standalone="no"?><!DOCTYPE svg PUBLIC "-//W3C//DTD SVG 1.1//EN" "http://www.w3.org/Graphics/SVG/1.1/DTD/svg11.dtd"><svg t="1561204422960" class="icon" viewBox="0 0 1024 1024" version="1.1" xmlns="http://www.w3.org/2000/svg" p-id="1986" xmlns:xlink="http://www.w3.org/1999/xlink" width="200" height="200"><defs><style type="text/css"></style></defs><path d="M512 1024a170.666667 170.666667 0 0 1-170.666667-170.666667H178.773333a85.333333 85.333333 0 0 1-85.333333-85.333333 85.333333 85.333333 0 0 1 20.48-55.893333L213.333333 597.333333V411.306667a298.666667 298.666667 0 0 1 166.826667-267.946667v-5.973333A134.826667 134.826667 0 0 1 512 0a135.68 135.68 0 0 1 130.56 137.386667 20.906667 20.906667 0 0 1 0 5.12A298.666667 298.666667 0 0 1 810.666667 411.306667V597.333333l99.413333 114.773334a85.333333 85.333333 0 0 1-8.96 120.32 85.333333 85.333333 0 0 1-55.893333 20.906666H682.666667a170.666667 170.666667 0 0 1-170.666667 170.666667z m-85.333333-170.666667a85.333333 85.333333 0 0 0 170.666666 0z m85.333333-655.36a213.333333 213.333333 0 0 0-213.333333 213.333334v201.813333a42.666667 42.666667 0 0 1-10.24 27.733333L178.773333 768h666.453334l-109.653334-128a42.666667 42.666667 0 0 1-10.24-27.733333V411.306667a213.333333 213.333333 0 0 0-213.333333-213.333334z m-256 415.146667zM512 85.333333a46.933333 46.933333 0 0 0-42.666667 30.293334 302.08 302.08 0 0 1 83.2 0A46.933333 46.933333 0 0 0 512 85.333333z" p-id="1987" fill="#515151"></path></svg>