<?xml version="1.0" encoding="UTF-8"?>
<svg width="113px" height="102px" viewBox="0 0 113 102" version="1.1" xmlns="http://www.w3.org/2000/svg" xmlns:xlink="http://www.w3.org/1999/xlink">
    <!-- Generator: Sketch 53.2 (72643) - https://sketchapp.com -->
    <title>xhdpi/employee</title>
    <desc>Created with Sketch.</desc>
    <g id="Page-1" stroke="none" stroke-width="1" fill="none" fill-rule="evenodd">
        <g id="employee" transform="translate(0.875000, 0.875000)" fill="#FFFFFF" fill-rule="nonzero">
            <path d="M7.01651613,90.6372946 L7.01651613,21.0452169 C7.01651613,20.1307593 7.76177663,19.3872906 8.67623425,19.3872906 L43.268328,19.3872906 C44.1290316,25.3062438 49.2364276,29.8684208 55.3901062,29.8684208 C61.5437849,29.8684208 66.6525889,25.3062438 67.5135485,19.3872906 L103.167027,19.3872906 C104.079821,19.3872906 104.824954,20.1307594 104.824954,21.0452169 L104.824954,61.9321576 L111.826026,61.9321576 L111.826026,21.0452169 C111.826026,16.2713515 107.942556,12.3862186 103.167027,12.3862187 L67.6420461,12.3862187 L67.6420461,3.61420925 C67.6420461,1.68098575 66.0763975,0.11367325 64.1415101,0.11367325 L46.6403662,0.11367325 C44.7072707,0.11367325 43.1398303,1.68098575 43.1398304,3.61420925 L43.1398304,12.3860907 L8.67623425,12.3860907 C3.90057713,12.3860907 0.01544425,16.2712236 0.01544425,21.045089 L0.01544425,90.6371666 C0.01544425,95.411032 3.90057713,99.2961649 8.67623425,99.2961649 L65.0096369,99.2961649 L65.0096369,92.295093 L8.67623425,92.295093 C7.76177663,92.295221 7.01651613,91.5517522 7.01651613,90.6372946 L7.01651613,90.6372946 Z M50.1409023,7.11474512 L60.6408463,7.11474512 L60.6408463,17.616353 C60.6408463,20.5117727 58.285526,22.8672209 55.3899784,22.8672209 C52.4944308,22.8672209 50.1409023,20.5119006 50.1409023,17.616353 L50.1409023,7.11474512 L50.1409023,7.11474512 Z" id="Shape"></path>
            <path d="M13.9611464,70.9534833 L13.9611464,77.4588666 C13.9611464,79.3919621 15.5285869,80.9594026 17.4616823,80.9594025 L60.4390129,80.9594025 C62.3739001,80.9594025 63.9395489,79.391962 63.9395488,77.4588666 L63.9395488,70.9534833 C63.9397915,69.6274722 63.1906915,68.4151768 62.0046615,67.8221859 L49.1033224,61.374908 L52.4397808,56.5206676 C52.8402714,55.9369839 53.0547881,55.2457834 53.0551359,54.5379138 L53.0551359,44.2909974 C53.0551359,36.6831455 46.9753049,30.722981 39.2119503,30.722981 C31.4502595,30.722981 25.3687646,36.6831455 25.3687648,44.2909974 L25.3687648,54.5379138 C25.3685845,55.2650716 25.5949899,55.9742159 26.0165001,56.5667425 L29.4161834,61.3475191 L15.9490198,67.7964608 C14.7339574,68.3784421 13.9608568,69.6062347 13.9611464,70.9534833 L13.9611464,70.9534833 Z M20.9623462,73.1584203 L36.1917445,65.8650291 C37.1232368,65.419244 37.8101647,64.5846622 38.0685264,63.5848365 C38.3265004,62.5845238 38.1301442,61.521353 37.5318824,60.6791779 L32.3699646,53.419959 L32.3699646,44.2908694 C32.3699646,40.6091058 35.3748121,37.7239249 39.2120782,37.7239249 C43.0493444,37.7239249 46.0541919,40.6091058 46.0541919,44.2908694 L46.0541919,53.4508035 L41.0546879,60.7253808 C40.4816283,61.5603921 40.2977533,62.6024594 40.5504244,63.5831726 C40.803168,64.5637649 41.4684003,65.386739 42.3742201,65.839432 L56.9387329,73.1174649 L56.9387329,73.9584586 L20.9623462,73.9584586 L20.9623462,73.1584203 Z M110.646638,71.5927716 C109.200656,70.321106 106.982024,70.4544671 105.706903,71.910688 L87.3871626,92.7395871 L74.7558734,83.0823008 C73.2209413,81.9098241 71.0262431,82.2020154 69.8468551,83.7369475 C68.6743785,85.2735434 68.9683615,87.4699054 70.5031656,88.6441739 L85.732564,100.285878 C86.3427324,100.753412 87.0902222,101.006355 87.8589178,101.005413 C88.8657147,101.006383 89.823938,100.572757 90.4877434,99.8157866 L110.964554,76.5340421 C112.239675,75.0814049 112.099403,72.8695565 110.646638,71.5927716 L110.646638,71.5927716 Z M84.2694319,62.1508851 C86.2043191,62.1508851 87.7699679,60.5834446 87.7699677,58.6503491 C87.7699676,56.7172536 86.2043191,55.1498131 84.2694319,55.1498133 L70.045105,55.1498133 C68.1102177,55.1498133 66.544569,56.7172538 66.544569,58.6503491 C66.544569,60.5834445 68.1102176,62.1508851 70.045105,62.1508851 L84.2694319,62.1508851 Z M70.045105,40.3101313 C68.1102178,40.3101313 66.544569,41.8775718 66.544569,43.8106673 C66.544569,45.7437627 68.1102176,47.3112032 70.045105,47.3112031 L92.3199861,47.3112031 C94.2548734,47.3112031 95.8205221,45.7437626 95.8205221,43.8106673 C95.8205221,41.8774438 94.2548735,40.3101313 92.3199861,40.3101313 L70.045105,40.3101313 Z" id="Shape"></path>
        </g>
    </g>
</svg>