<?xml version="1.0" standalone="no"?><!DOCTYPE svg PUBLIC "-//W3C//DTD SVG 1.1//EN" "http://www.w3.org/Graphics/SVG/1.1/DTD/svg11.dtd"><svg t="1554450992074" class="icon" style="" viewBox="0 0 1024 1024" version="1.1" xmlns="http://www.w3.org/2000/svg" p-id="1979" xmlns:xlink="http://www.w3.org/1999/xlink" width="200" height="200"><defs><style type="text/css"></style></defs><path d="M150.528 443.0848c49.152 0 92.8768-23.8592 120.4224-60.5184 27.4432 36.864 71.2704 60.7232 120.5248 60.7232 49.0496 0 92.7744-23.6544 120.32-60.3136 27.4432 37.0688 71.3728 61.1328 120.6272 61.1328 48.7424 0 92.2624-23.2448 119.808-59.2896 27.4432 37.888 71.5776 62.464 121.1392 62.464 84.48 0 150.6304-65.6384 150.6304-148.0704 0-1.536-0.1024-4.096-0.3072-5.5296L983.4496 30.8224c-2.2528-14.7456-14.9504-29.4912-29.7984-29.4912H70.144c-14.848 0.1024-27.4432 14.848-29.696 29.4912L0.3072 295.7312c-0.2048 1.536-0.3072 3.072-0.3072 4.608 0 57.344 32.1536 104.7552 81.1008 127.7952v456.0896c0 45.7728 48.8448 106.8032 103.6288 106.8032h307.2c16.5888 0 30.1056-13.824 30.1056-30.4128s-13.5168-30.4128-30.1056-30.4128h-307.2c-12.3904 0-44.032-23.4496-44.032-45.9776v-441.344c3.1744 0.1024 6.4512 0.2048 9.8304 0.2048zM96.0512 62.2592h831.7952l35.84 236.544c-1.1264 48.4352-39.5264 88.3712-90.3168 88.3712-48.9472 0-90.3168-42.7008-90.3168-93.2864 0-16.5888-13.5168-30.1056-30.1056-30.1056s-30.1056 13.5168-30.1056 30.1056c0 49.664-40.5504 90.112-90.3168 90.112s-90.3168-41.1648-90.3168-91.648c0-16.5888-13.5168-30.1056-30.1056-30.1056s-30.1056 13.4144-30.1056 30.1056c0 50.0736-40.5504 90.8288-90.3168 90.8288S301.056 341.9136 301.056 291.6352c0-16.5888-13.5168-30.3104-30.1056-30.3104s-30.1056 13.0048-30.1056 29.696c0 50.176-40.5504 90.112-90.3168 90.112-51.6096 0-89.1904-35.5328-90.3168-82.3296l35.84-236.544z" fill="" p-id="1980"></path><path d="M861.2864 842.752c48.7424-28.672 81.408-80.2816 81.408-139.1616 0-89.9072-76.1856-163.0208-169.7792-163.0208-93.5936 0.1024-169.7792 73.216-169.7792 163.0208 0 58.7776 32.6656 110.4896 81.408 139.1616-68.7104 26.3168-122.4704 82.6368-141.9264 154.4192-2.8672 10.752 3.4816 21.7088 14.1312 24.576 10.5472 2.8672 21.7088-3.4816 24.6784-14.1312 22.4256-83.0464 101.0688-141.0048 191.3856-141.0048s169.0624 57.9584 191.488 141.1072a20.0704 20.0704 0 0 0 19.3536 14.848c1.7408 0 3.4816-0.2048 5.2224-0.7168 10.752-2.8672 17.1008-13.9264 14.1312-24.576-19.2512-71.8848-73.0112-128.2048-141.7216-154.5216zM643.3792 703.5904c0-67.6864 58.1632-122.7776 129.536-122.7776S902.4512 635.904 902.4512 703.5904c0 67.6864-58.1632 122.7776-129.536 122.88-71.4752 0-129.536-55.0912-129.536-122.88z" fill="" p-id="1981"></path></svg>