<?xml version="1.0" encoding="UTF-8"?>
<svg width="111px" height="118px" viewBox="0 0 111 118" version="1.1" xmlns="http://www.w3.org/2000/svg" xmlns:xlink="http://www.w3.org/1999/xlink">
    <!-- Generator: Sketch 53.2 (72643) - https://sketchapp.com -->
    <title>xhdpi/Shape</title>
    <desc>Created with Sketch.</desc>
    <g id="Page-1" stroke="none" stroke-width="1" fill="none" fill-rule="evenodd">
        <g id="order" transform="translate(0.750000, 0.625000)" fill="#FFFFFF" fill-rule="nonzero">
            <path d="M57.428625,32.56575 C64.10825,32.56575 69.522875,26.98575 69.522875,20.0995 C69.522875,16.225625 67.80925,12.76475 65.119125,10.47725 C65.34925,11.262 65.511625,12.07825 65.511625,12.94125 C65.511625,17.64675 61.812125,21.4595 57.248625,21.4595 C52.684,21.4595 48.98425,17.64675 48.98425,12.94125 C48.98425,12.251875 49.08425,11.591 49.2355,10.950125 C46.844,13.2275 45.335125,16.477625 45.335125,20.099375 C45.33525,26.98575 50.749875,32.56575 57.428625,32.56575 Z M57.043625,16.67275 C61.4945,16.67275 65.102625,12.954125 65.102625,8.36525 C65.102625,3.777875 61.4945,0.05925 57.043625,0.05925 C52.592625,0.05925 48.984375,3.777875 48.984375,8.36525 C48.984375,12.954125 52.5925,16.67275 57.043625,16.67275 Z M0.101125,91.17575 L19.577375,98.947875 C18.0065,95.709125 11.723375,46.814125 11.723375,46.814125 L0.101125,91.17575 Z M79.26175,116.758 L80.519375,97.653125 L36.854875,102.186625 L79.26175,116.758 Z M92.454875,11.518625 L71.2855,14.738625 C72.55975,17.09275 73.292375,19.80175 73.292375,22.69025 C73.292375,31.721375 66.1915,39.04325 57.428875,39.04325 C48.668375,39.04325 41.56625,31.72125 41.56625,22.69025 C41.56625,21.4925 41.6995,20.327625 41.935,19.20225 L15.806875,23.17575 C16.748875,48.43325 28.05825,98.624625 28.05825,98.624625 L109.419,84.376625 C103.764125,78.547125 92.454875,11.518625 92.454875,11.518625 Z M31.173125,51.411375 L65.790375,46.28 L66.819125,50.132375 L32.20375,55.26525 L31.173125,51.411375 Z M38.606,80.619375 L37.3485,76.225625 L79.95325,69.97625 L81.212,74.369875 L38.606,80.619375 Z M36.025125,67.966625 L34.345,63.606875 L89.224,56.166875 L90.904875,60.52625 L36.025125,67.966625 Z" id="Shape"></path>
        </g>
    </g>
</svg>