<?xml version="1.0" standalone="no"?><!DOCTYPE svg PUBLIC "-//W3C//DTD SVG 1.1//EN" "http://www.w3.org/Graphics/SVG/1.1/DTD/svg11.dtd"><svg t="1546252922677" class="icon" style="" viewBox="0 0 1024 1024" version="1.1" xmlns="http://www.w3.org/2000/svg" p-id="2808" xmlns:xlink="http://www.w3.org/1999/xlink" width="200" height="200"><defs><style type="text/css"></style></defs><path d="M914.359596 54.30303H109.640404C78.99798 54.30303 54.173737 79.127273 54.173737 109.769697v804.589899c0 30.642424 24.824242 55.466667 55.466667 55.466667h804.589899c30.642424 0 55.466667-24.824242 55.59596-55.337374V109.769697c0-30.642424-24.824242-55.466667-55.466667-55.466667zM767.482828 671.030303c-12.282828 0-25.987879-30.125253-30.383838-38.270707-0.387879-0.387879-0.646465-0.387879-0.905051-0.387879l-1.551515 1.292929c-10.084848 26.246465-21.20404 50.941414-41.761616 70.59394 18.10101 17.454545 47.191919 15.773737 52.622222 45.89899-1.551515 3.490909-0.905051 7.240404-3.490909 10.731313-18.10101 27.280808-66.456566 30.771717-95.676767 30.771717-38.658586 0-69.947475-10.084848-106.408081-20.945454-7.628283-2.19798-19.006061-0.905051-27.280808-1.939394-19.264646 21.20404-66.456566 26.892929-93.737374 26.892929-24.048485 0-117.139394-1.551515-117.139394-42.79596 0-17.713131 3.749495-22.755556 16.161616-34.262626 9.826263-1.939394 17.066667-7.240404 28.444445-7.886869 1.551515 0 2.844444-0.387879 4.395959-0.646464 0.387879-0.387879 0.646465-0.387879 0.646465-1.29293l-0.646465-0.90505c-21.850505-5.042424-52.622222-60.250505-57.276768-83.006061l-1.551515-0.90505c-2.19798 0-3.10303 4.783838-3.749495 6.335353-6.981818 16.161616-23.40202 33.616162-41.761616 35.426263h-0.387879c-2.585859 0-1.551515-2.585859-3.490909-3.10303-4.39596-10.472727-7.240404-19.911111-7.240404-31.676768 0-63.353535 30.383838-110.157576 79.773738-147.652525-2.19798-5.430303-2.585859-10.731313-2.585859-16.420202 0-8.921212 5.688889-23.143434 11.119192-29.737374-0.387879-8.274747 3.10303-24.953535 9.567677-30.383838 0-58.569697 45.252525-132.39596 98.133333-157.737374 32.581818-15.515152 66.844444-20.945455 102.658586-20.945455 27.927273 0 58.311111 6.593939 84.29899 17.454546 74.472727 31.418182 91.280808 89.6 107.054545 164.072727l0.258586 1.551515c9.179798 13.963636 17.454545 30.383838 17.454546 47.579798 0 8.533333-5.688889 17.066667-5.688889 24.69495 0 0.646465 1.939394 3.10303 2.19798 3.749495 27.280808 40.210101 51.975758 83.911111 51.975757 133.947474-0.258586 11.248485-6.335354 49.907071-24.048485 49.907071z" fill="#0187FA" p-id="2809"></path></svg>