<?xml version="1.0" encoding="UTF-8"?>
<svg width="35px" height="34px" viewBox="0 0 35 34" version="1.1" xmlns="http://www.w3.org/2000/svg" xmlns:xlink="http://www.w3.org/1999/xlink">
    <!-- Generator: Sketch 54.1 (76490) - https://sketchapp.com -->
    <title>shuju</title>
    <desc>Created with Sketch.</desc>
    <g id="shuju" stroke="none" stroke-width="1" fill="none" fill-rule="evenodd">
        <path d="M27.897231,18.4758751 C28.5419713,18.4758751 29.0524315,19.0276257 28.9956865,19.6695828 C28.3888577,26.5673217 22.5724981,32 15.516799,32 C8.05874868,32 2,25.9155861 2,18.4758751 C2,11.4375706 7.43553235,5.61228634 14.3368949,5.00430943 C14.9789447,4.94759426 15.5312298,5.45803084 15.5312298,6.10218813 L15.5312298,17.3757962 C15.5312298,17.9832842 16.0240795,18.4758751 16.6318866,18.4758751 L27.897231,18.4758751 Z" id="Stroke-1" stroke="#F44455" stroke-width="3"></path>
        <path d="M31.0185218,14 L20.9795983,14 C20.4384247,14 20,13.5613644 20,13.0204169 L20,2.98143141 C20,2.40783107 20.491323,1.95352219 21.062973,2.00380746 C26.8547936,2.51319068 31.4867698,7.14509503 31.9961609,12.9370435 C32.0466647,13.5086846 31.5923487,14 31.0185218,14 Z" id="Stroke-3" stroke="#F44455" stroke-width="3"></path>
    </g>
</svg>