<?xml version="1.0" encoding="UTF-8"?>
<svg width="41px" height="31px" viewBox="0 0 41 31" version="1.1" xmlns="http://www.w3.org/2000/svg" xmlns:xlink="http://www.w3.org/1999/xlink">
    <!-- Generator: Sketch 54.1 (76490) - https://sketchapp.com -->
    <title>jin</title>
    <desc>Created with Sketch.</desc>
    <g id="jin" stroke="none" stroke-width="1" fill="none" fill-rule="evenodd">
        <path d="M4.35929215,17.9810791 C4.4027147,17.9810791 4.39442862,17.9879743 4.37419859,18.0632691 L1.51299397,28.7125314 C1.46797956,28.8799224 1.53517053,28.9810791 1.49784256,28.9810791 L17.5019348,28.9810791 C17.4648382,28.9810791 17.5320643,28.8798694 17.4870397,28.7122474 L14.6255794,18.0632712 C14.6053512,17.9879833 14.5970557,17.9810791 14.6408179,17.9810791 L4.35929215,17.9810791 Z" id="Fill-1" stroke="#9A81D5" stroke-width="3"></path>
        <path d="M26.3592922,17.9810791 C26.4027147,17.9810791 26.3944286,17.9879743 26.3741986,18.0632691 L23.512994,28.7125314 C23.4679796,28.8799224 23.5351705,28.9810791 23.4978426,28.9810791 L39.5019348,28.9810791 C39.4648382,28.9810791 39.5320643,28.8798694 39.4870397,28.7122474 L36.6255794,18.0632712 C36.6053512,17.9879833 36.5970557,17.9810791 36.6408179,17.9810791 L26.3592922,17.9810791 Z" id="Fill-3" stroke="#9A81D5" stroke-width="3"></path>
        <path d="M15.3592922,1.5 C15.4027147,1.5 15.3944286,1.50689524 15.3741986,1.58218997 L12.512994,12.2314523 C12.4679796,12.3988433 12.5351705,12.5 12.4978426,12.5 L28.5019348,12.5 C28.4648382,12.5 28.5320643,12.3987903 28.4870397,12.2311683 L25.6255794,1.58219215 C25.6053512,1.50690419 25.5970557,1.5 25.6408179,1.5 L15.3592922,1.5 Z" id="Fill-5" stroke="#9A81D5" stroke-width="3"></path>
    </g>
</svg>