<?xml version="1.0" standalone="no"?><!DOCTYPE svg PUBLIC "-//W3C//DTD SVG 1.1//EN" "http://www.w3.org/Graphics/SVG/1.1/DTD/svg11.dtd"><svg t="1556191021656" class="icon" style="" viewBox="0 0 1024 1024" version="1.1" xmlns="http://www.w3.org/2000/svg" p-id="4847" xmlns:xlink="http://www.w3.org/1999/xlink" width="200" height="200"><defs><style type="text/css"></style></defs><path d="M110.911839 332.735516h180.554156s33.531486 0 41.269521 10.317381h-33.531486v10.31738h51.586902s7.738035 5.15869 7.738035 10.31738h-61.904282v10.317381h67.062972s7.738035 5.15869 5.158691 12.896725h-201.188917v10.317381h208.926952s2.579345 7.738035 2.579345 10.31738h-211.506297v10.31738h211.506297s2.579345 7.738035-2.579345 10.317381l-208.926952 2.579345v10.31738l206.347607-2.579345s0 7.738035-5.15869 10.31738l-201.188917 2.579345v15.476071l196.030226-2.579345s0 10.31738-7.738035 12.896725h-188.292191v10.317381l170.236776-2.579345s-5.15869 12.896725-28.372796 12.896725h-30.952141v10.31738h51.586901s23.214106 0 23.214106 10.317381l-77.380353 2.579345v10.31738h90.277079s7.738035 7.738035 7.738035 10.317381l-208.926952 2.579345v12.896725l211.506297-2.579345s7.738035 5.15869 7.738035 12.896725l-214.085642 2.579345v10.317381h224.403022s2.579345 2.579345 2.579346 10.31738l-226.982368 2.579345v10.317381h226.982368s2.579345 5.15869 0 10.31738l-226.982368 2.579345v10.31738h224.403022s2.579345 7.738035-2.579345 12.896726h-221.823677v7.738035h216.664987s0 10.31738-5.15869 10.31738h-74.801008v10.317381h67.062973s-5.15869 10.31738-10.317381 12.896725h-59.324937v10.317381h38.690177s-5.15869 12.896725-56.745592 10.31738h-170.236776v-368.846348h-5.15869z" fill="#FCEA00" p-id="4848"></path><path d="M572.61461 505.551637h49.007556v20.634761s25.793451-25.793451 49.007557-23.214106c0 0 51.586902-10.31738 64.483627 51.586902l2.579345 131.546599h-49.007556v-118.649874s-15.476071-33.531486-49.007557-12.896725c0 0-15.476071 5.15869-12.896726 46.428212v85.118387h-49.007556l-5.15869-180.554156zM748.010076 435.90932h43.848866l2.579345 134.125944 54.166247-69.642317h56.745592l-51.586902 69.642317 59.324937 113.491184h-54.166247l-41.269521-72.221662-23.214106 30.952141v41.269521h-49.007557l2.579346-247.617128zM557.138539 665.471033l-2.579345-116.070529c-2.579345-61.904282-103.173804-41.269521-103.173804-41.269522-54.166247 7.738035-49.007557 56.745592-49.007556 56.745592l51.586902 2.579345c2.579345-28.372796 43.848866-20.634761 43.848866-20.63476 28.372796 23.214106-5.15869 28.372796-5.15869 28.372796-15.476071 0-67.062972 15.476071-67.062972 15.47607-30.952141 12.896725-28.372796 43.848866-28.372796 43.848867 0 51.586902 43.848866 54.166247 43.848866 54.166247 41.269521 10.31738 67.062972-18.055416 67.062972-18.055416l2.579345 18.055416 51.586902-2.579346-5.15869-20.63476z m-49.007557-43.848867s-5.15869 20.634761-23.214105 23.214106c0 0-30.952141 20.634761-41.269522-5.15869 0 0-5.15869-15.476071 10.317381-20.634761 2.579345 0 51.586902-12.896725 54.166246-20.634761v23.214106z" fill="#6B1685" p-id="4849"></path></svg>