<?xml version="1.0" standalone="no"?><!DOCTYPE svg PUBLIC "-//W3C//DTD SVG 1.1//EN" "http://www.w3.org/Graphics/SVG/1.1/DTD/svg11.dtd"><svg t="1556194582732" class="icon" style="" viewBox="0 0 1024 1024" version="1.1" xmlns="http://www.w3.org/2000/svg" p-id="1698" xmlns:xlink="http://www.w3.org/1999/xlink" width="128" height="128"><defs><style type="text/css"></style></defs><path d="M876.97733 760.906801v-531.345088c-5.15869-110.911839-113.491184-90.277078-113.491184-90.277078l-513.289672 5.15869c-105.753149 0-103.173804 113.491184-103.173804 113.491184v513.289672c0 123.808564 118.649874 110.911839 118.649874 110.911839h510.710328c116.070529 2.579345 100.594458-121.229219 100.594458-121.229219z m-128.967254-30.952141s-268.251889-185.712846-464.282116 23.214106l-2.579345 2.579345 2.579345-2.579345c23.214106-25.793451 193.450882-257.934509-2.579345-482.337532 0 0 250.196474 221.823678 466.861461-5.15869 0 2.579345-206.347607 245.037783 0 464.282116z" fill="#0081CC" p-id="1699"></path></svg>