<?xml version="1.0" standalone="no"?><!DOCTYPE svg PUBLIC "-//W3C//DTD SVG 1.1//EN" "http://www.w3.org/Graphics/SVG/1.1/DTD/svg11.dtd"><svg t="1556191318689" class="icon" style="" viewBox="0 0 1024 1024" version="1.1" xmlns="http://www.w3.org/2000/svg" p-id="7497" xmlns:xlink="http://www.w3.org/1999/xlink" width="200" height="200"><defs><style type="text/css"></style></defs><path d="M530.858667 722.090667v-14.592c85.333333-6.826667 156.672-62.848 185.770666-139.776-14.122667 6.314667-30.08 12.074667-47.530666 16.938666a182.4 182.4 0 0 1-89.770667 75.605334c13.098667-23.168 23.466667-52.992 29.952-87.04 51.626667-8.96 93.269333-24.874667 116.736-44.586667v-74.325333c-23.466667-19.712-65.066667-35.584-116.736-44.586667-6.314667-33.536-16.512-62.933333-29.397333-86.016a182.186667 182.186667 0 0 1 89.216 78.506667c17.706667 5.717333 33.792 12.288 47.530666 19.584a217.557333 217.557333 0 0 0-185.770666-146.261334v-16.384a368.298667 368.298667 0 0 0 182.784-58.965333l-25.344-25.941333a333.696 333.696 0 0 1-157.44 49.28V170.666667h-37.674667v52.864a333.482667 333.482667 0 0 1-157.44-49.493334l-25.301333 25.941334a368.853333 368.853333 0 0 0 182.741333 59.178666v16.042667a217.856 217.856 0 0 0-185.813333 139.861333c14.165333-6.357333 30.165333-12.117333 47.530666-16.896a182.912 182.912 0 0 1 89.941334-75.733333c-13.184 23.253333-23.637333 53.12-30.122667 87.296-51.626667 9.002667-93.184 24.874667-116.736 44.586667v74.325333c23.552 19.712 65.152 35.626667 116.736 44.586667 6.357333 33.408 16.469333 62.848 29.354667 85.845333a182.698667 182.698667 0 0 1-89.088-78.549333 288.042667 288.042667 0 0 1-47.616-19.541334 217.514667 217.514667 0 0 0 185.813333 146.218667v14.890667c-93.226667 6.016-172.16 56.533333-209.024 127.189333h45.781333c33.066667-50.602667 93.141333-86.101333 163.242667-91.52V853.333333h37.674667v-95.530666c70.144 5.461333 130.218667 40.874667 163.242666 91.477333h45.738667c-36.864-70.656-115.754667-121.173333-208.981333-127.189333m83.498666-278.613334c32.128 5.888 58.154667 14.421333 73.984 24.618667v46.762667c-15.829333 10.24-41.813333 18.773333-73.984 24.618666a456.746667 456.746667 0 0 0 0-96m-204.629333 96c-32.170667-5.888-58.154667-14.378667-74.026667-24.618666v-46.762667c15.872-10.24 41.813333-18.730667 74.026667-24.618667a466.901333 466.901333 0 0 0 0 96m164.394667 5.546667c-19.498667 1.92-40.32 2.986667-62.037334 2.986667-21.802667 0-42.666667-1.066667-62.208-2.986667a396.458667 396.458667 0 0 1-3.84-53.546667c0-17.834667 1.408-35.882667 3.84-53.504 19.541333-2.005333 40.405333-3.029333 62.208-3.029333 21.717333 0 42.538667 1.024 62.037334 2.986667 2.432 17.664 3.84 35.712 3.84 53.546666 0 17.792-1.408 35.925333-3.84 53.546667m-72.533334-234.666667h18.261334c4.138667 0.170667 8.277333 0.554667 12.288 0.981334 13.482667 17.493333 27.178667 52.266667 36.010666 92.970666a602.197333 602.197333 0 0 0-112.298666 0c8.96-40.917333 22.741333-75.818667 36.181333-93.226666l9.514667-0.768m-45.653334 268.373333a602.026667 602.026667 0 0 0 112.256 0c-8.832 40.746667-22.613333 75.605333-36.053333 93.013333a160.853333 160.853333 0 0 1-15.146667 0.938667h-7.338666a182.741333 182.741333 0 0 1-17.834667-1.28c-13.397333-17.493333-27.008-52.138667-35.925333-92.672" fill="#E62511" p-id="7498"></path></svg>