<?xml version="1.0" standalone="no"?><!DOCTYPE svg PUBLIC "-//W3C//DTD SVG 1.1//EN" "http://www.w3.org/Graphics/SVG/1.1/DTD/svg11.dtd"><svg t="1555923617030" class="icon" style="" viewBox="0 0 1024 1024" version="1.1" xmlns="http://www.w3.org/2000/svg" p-id="4715" xmlns:xlink="http://www.w3.org/1999/xlink" width="128" height="128"><defs><style type="text/css"></style></defs><path d="M272 979.2H65.6c-12.8 0-24-11.2-24-24V595.2c0-12.8 11.2-24 24-24H272c12.8 0 24 11.2 24 24v360c0 12.8-11.2 24-24 24zM614.4 974.4H401.6c-12.8 0-24-11.2-24-24V59.2c0-12.8 11.2-24 24-24h212.8c12.8 0 24 11.2 24 24v891.2c0 12.8-11.2 24-24 24zM958.4 974.4H756.8c-12.8 0-24-11.2-24-24V371.2c0-12.8 11.2-24 24-24H960c12.8 0 24 11.2 24 24v579.2c-1.6 12.8-12.8 24-25.6 24z" p-id="4716" fill="#ffffff"></path></svg>