<?xml version="1.0" standalone="no"?><!DOCTYPE svg PUBLIC "-//W3C//DTD SVG 1.1//EN" "http://www.w3.org/Graphics/SVG/1.1/DTD/svg11.dtd"><svg t="1556191447216" class="icon" style="" viewBox="0 0 1024 1024" version="1.1" xmlns="http://www.w3.org/2000/svg" p-id="9794" xmlns:xlink="http://www.w3.org/1999/xlink" width="200" height="200"><defs><style type="text/css"></style></defs><path d="M109.41952 541.33248c0-216.04352 195.30752-539.4944 657.21344-448.12288 0 0-311.424-228.61824-601.31328 61.27104L99.03616 233.97888 49.33632 378.0864l3.328 69.5808 26.48064 71.22944 30.27456 22.43584z" fill="#EFA502" p-id="9795"></path><path d="M488.32 520.54016l245.1712 258.40128C155.35616 1203.00544-227.29216 487.3984 165.31968 154.47552c-228.59264 298.16832 18.19648 607.104 323.00032 366.06464z" fill="#314396" p-id="9796"></path><path d="M914.62144 482.64704c0 216.04352-195.31776 539.52512-657.22368 448.18944 0 0 311.46496 228.5568 601.31328-61.33248l66.24768-79.50336 49.69984-144.07168-3.328-69.61152-26.48064-71.22944-30.22848-22.44096z" fill="#EFA502" p-id="9797"></path><path d="M535.68 503.43936L290.53952 245.03808c578.0736-424.06912 960.75264 291.57376 568.17152 624.46592 228.58752-298.16832-18.23232-607.07328-323.03104-366.06464z" fill="#314396" p-id="9798"></path></svg>