<?xml version="1.0" standalone="no"?><!DOCTYPE svg PUBLIC "-//W3C//DTD SVG 1.1//EN" "http://www.w3.org/Graphics/SVG/1.1/DTD/svg11.dtd"><svg t="1556191175482" class="icon" style="" viewBox="0 0 1024 1024" version="1.1" xmlns="http://www.w3.org/2000/svg" p-id="5609" xmlns:xlink="http://www.w3.org/1999/xlink" width="200" height="200"><defs><style type="text/css"></style></defs><path d="M494.165333 173.013333l-18.986666 2.218667-8.917334 1.109333-10.026666 1.066667-17.877334 3.328-17.834666 4.437333-8.917334 3.285334-8.96 2.218666-16.725333 6.613334-16.682667 6.656-3.370666 2.176-3.328 3.328-1.109334 2.218666-1.152 2.218667-1.109333 4.394667v6.613333l1.109333 2.218667 2.261334 2.218666 2.218666 2.218667 2.218667 1.109333 6.698667 3.285334 7.808 4.437333 10.026666 5.546667 5.589334 3.285333 6.698666 4.394667 5.546667 4.437333 6.741333 5.504 5.546667 6.656 6.698667 6.613333 4.48 6.613334 4.48 5.546666 4.437333 6.613334 3.328 6.613333 5.546667 12.16 4.48 11.008 3.413333 9.941333 2.218667 9.941334 1.109333 7.722666v494.72l12.245333 1.066667 13.397334 2.218667H538.794667l12.245333-1.109334 12.245333-2.176V356.266667l1.152-6.613334 2.218667-8.832 3.328-11.093333 3.370667-12.117333 6.698666-13.226667 7.765334-13.226667 4.48-6.656 5.589333-6.613333 6.698667-6.613333 6.656-7.765334 6.741333-5.546666 5.546667-4.394667 11.178666-7.68 10.026667-5.546667 8.96-4.437333 6.656-3.285333 2.261333-1.109334 2.218667-2.218666 1.109333-2.218667 1.109334-2.218667 1.109333-3.285333v-3.328l-1.109333-2.218667v-2.176l-2.218667-3.328-3.370667-3.285333-3.328-2.261333-16.725333-7.68-16.768-6.656-17.834667-5.546667-17.834666-4.394667-18.986667-3.328-17.834667-2.176-10.026666-1.109333-10.069334-1.109333h-37.888z m201.898667 626.090667l15.616-9.941333 15.616-12.16 14.506667-11.050667 13.354666-13.226667 13.397334-13.226666 5.589333-7.765334 6.698667-6.613333 11.136-15.488 10.026666-15.445333 10.069334-15.445334 8.917333-16.554666 7.808-17.664 6.656-17.706667 6.698667-17.621333 2.261333-9.984 2.218667-8.789334 4.48-18.773333 2.218666-19.882667v-2.218666l-2.218666-2.218667-2.218667-3.328-3.413333-3.285333-4.394667-2.218667-4.48-3.328-4.48-1.066667-4.48-1.109333h-5.546667l-5.589333 1.109333-4.437333 1.066667-4.48 2.218667-4.48 2.218666-3.328 2.218667-3.370667 3.328-3.328 2.176-4.48 6.656-4.437333 5.546667-3.328 7.68-2.261334 3.328-2.218666 1.109333-1.109334 1.109333h-3.370666l-2.218667-1.109333-2.261333-1.109333-4.437334-5.546667-5.546666-6.613333-2.261334-3.328-1.109333-4.394667-3.328-7.722667-3.370667-7.765333-2.218666-7.68-1.109334-6.656v-6.613333l1.109334-11.093334v-4.394666l1.109333-5.504 3.328-7.722667 2.261333-7.722667 6.698667-11.093333 4.437333-6.613333 2.218667-4.394667 3.370667-2.176 2.218666-1.109333h4.48l2.218667 1.109333 1.109333 2.176 1.152 1.109333 3.328 6.613334 2.218667 5.546666 4.48 5.504 2.218667 2.218667 3.370666 3.285333 5.546667 4.437334 4.48 2.218666 4.48 2.218667 4.437333 1.109333 4.437334 1.066667 5.589333 1.109333h4.48l4.437333-1.109333 3.370667-1.066667 3.328-1.109333 2.218667-2.218667 4.48-3.328 3.328-4.394666 2.261333-3.328 1.109333-3.328-1.109333-9.898667-1.109333-9.941333-4.48-18.773334-4.48-18.773333-6.698667-17.706667-6.656-17.621333-7.808-17.664-8.96-16.597333-10.026667-15.445334-10.026666-15.445333-5.546667-7.765333-6.698667-7.68-11.178666-14.378667-13.397334-13.226667-13.354666-12.16-14.506667-12.16-15.616-11.093333-15.616-11.008V799.146667zM313.472 237.056l-17.877333 12.16-15.616 14.336-14.506667 14.378667-14.506667 15.445333-13.354666 16.554667-12.288 17.664-11.136 17.664-4.48 9.941333-5.546667 8.832-7.850667 19.882667-4.437333 9.941333-3.370667 9.941333-6.656 20.992-4.48 20.992-2.218666 11.008-1.152 11.050667-2.218667 11.050667v11.050666L170.666667 500.992V512l1.109333 22.101333 2.218667 22.058667 3.370666 22.101333 2.218667 11.050667 2.261333 9.898667 3.328 11.093333 3.328 9.898667 3.370667 9.941333 4.437333 9.941333 7.850667 19.882667 5.546667 8.832 4.48 9.941333 11.093333 17.664 6.741333 8.832 5.546667 8.832 6.698667 7.722667 6.698666 8.832 14.506667 15.445333 6.698667 7.722667 7.808 6.656 7.808 7.722667 7.808 6.656 8.96 6.613333 8.917333 5.504 16.725333 12.16v-249.6l-3.370666-4.352-5.546667-5.546667-3.370667-2.218666-4.437333-2.218667-4.48-1.066667-4.48-1.109333h-5.546667l-4.48 1.109333-5.589333 1.066667-4.437333 2.218667-3.328 2.218666-3.413334 2.218667-3.328 3.328-3.328 2.176-5.546666 6.656-3.370667 5.546667-3.370667 7.68-3.328 3.328-1.109333 1.109333-1.109333 1.109333h-3.370667l-2.218667-1.109333-2.218666-1.109333-5.589334-5.546667-4.437333-6.613333-2.261333-3.328-2.218667-4.394667-3.328-7.722667-2.261333-7.765333-2.218667-7.68-1.109333-6.656v-6.613333l1.109333-11.093334v-4.394666l1.109333-5.504 2.218667-7.722667 3.370667-7.722667 5.546666-11.093333 4.48-6.613333 3.328-4.394667 3.370667-2.176 2.218667-1.109333h4.48l1.109333 1.109333 2.218667 2.176 1.109333 1.109333 3.413333 6.613334 2.176 5.546666 4.437334 5.504 2.261333 2.218667 2.218667 3.285333 6.698666 4.437334 4.48 2.218666 3.328 2.218667 5.546667 1.109333 4.48 1.066667 4.48 1.109333h6.698667l3.328-1.109333 3.370666-1.066667 2.218667-1.109333 4.437333-2.218667 3.370667-3.328 3.328-3.328 1.152-3.285333 1.109333-3.328V224.896l-16.725333 12.16z m350.250667 23.168l-4.48 2.218667-5.546667 2.218666-5.632 3.328-11.136 7.68-5.546667 5.546667-6.741333 5.546667-5.546667 6.613333-5.589333 6.613333-4.48 7.722667-5.546667 8.832-3.370666 8.832-3.328 9.941333-3.328 11.050667-1.152 12.16v483.626667l18.944-4.437334 20.096-6.613333 18.986666-7.722667 17.834667-8.832V258.048l-4.437333 2.176zM359.168 814.549333l8.96 4.437334 8.917333 4.394666 8.874667 3.328 8.96 4.394667 18.944 5.546667 20.053333 5.546666V352.938667l-2.176-12.117334-3.370666-9.941333-3.370667-9.941333-3.328-8.832-5.546667-7.722667-4.48-6.613333-5.546666-6.656-5.589334-6.613334-5.589333-5.546666-5.546667-4.394667-5.632-3.285333-5.546666-4.437334-11.178667-5.546666-7.808-3.285334V814.506667z" fill="#E50113" p-id="5610"></path></svg>