<?xml version="1.0" standalone="no"?><!DOCTYPE svg PUBLIC "-//W3C//DTD SVG 1.1//EN" "http://www.w3.org/Graphics/SVG/1.1/DTD/svg11.dtd"><svg t="1556191396873" class="icon" style="" viewBox="0 0 1024 1024" version="1.1" xmlns="http://www.w3.org/2000/svg" p-id="8997" xmlns:xlink="http://www.w3.org/1999/xlink" width="200" height="200"><defs><style type="text/css"></style></defs><path d="M513.289673 343.052897c28.372796 0 56.745592 5.15869 79.959697 18.055415 2.579345 0 5.15869 2.579345 5.15869 5.158691v141.863979c0 12.896725-7.738035 15.476071-15.47607 5.158691l-61.904282-61.904283c-2.579345-2.579345-2.579345-2.579345-7.738035 0-54.166247 54.166247-105.753149 103.173804-159.919396 154.760706-2.579345 2.579345-12.896725 2.579345-15.47607-2.579345-7.738035-23.214106-15.476071-46.428212-15.476071-74.801008-5.15869-103.173804 85.118388-185.712846 190.871537-185.712846zM662.891688 247.617128c-23.214106-56.745592-85.118388-92.856423-154.760706-92.856423-95.435768 0-172.816121 74.801008-172.816121 165.078086 0 7.738035 0 20.634761 2.579346 28.372796 2.579345 12.896725 5.15869 12.896725 15.47607 5.15869 41.269521-38.690176 98.015113-61.904282 157.34005-61.904282 18.055416 0 38.690176 2.579345 56.745592 5.15869 7.738035 2.579345 7.738035 2.579345 15.476071-2.579345 23.214106-15.476071 46.428212-25.793451 74.801007-36.110831 5.15869 5.15869 10.31738-2.579345 5.158691-10.317381zM291.465995 296.624685c-61.904282 5.15869-116.070529 54.166247-136.70529 118.649874-28.372796 92.856423 18.055416 185.712846 105.753149 216.664988 7.738035 2.579345 18.055416 5.15869 25.793451 5.15869 12.896725 0 15.476071-2.579345 7.738035-12.896726-20.634761-54.166247-28.372796-113.491184-7.738035-167.65743 5.15869-18.055416 15.476071-36.110831 23.214106-51.586902 5.15869-7.738035 5.15869-5.15869 2.579345-15.476071-5.15869-25.793451-7.738035-54.166247-12.896726-82.539043 2.579345-5.15869 0-10.31738-7.738035-10.31738zM221.823678 668.050378c-15.476071 59.324937 15.476071 123.808564 72.221662 165.078085 77.380353 56.745592 183.133501 41.269521 237.299748-33.531486 5.15869-7.738035 12.896725-15.476071 15.476071-23.214105 2.579345-12.896725 2.579345-15.476071-7.738036-12.896726-56.745592 5.15869-116.070529-7.738035-162.49874-43.848866-15.476071-12.896725-28.372796-23.214106-41.269522-38.690177-5.15869-5.15869-5.15869-5.15869-15.47607-7.738035-25.793451-2.579345-54.166247-7.738035-79.959698-15.476071-7.738035-2.579345-12.896725 0-18.055415 10.317381zM554.559194 846.025189c54.166247 33.531486 123.808564 23.214106 177.974811-15.476071 77.380353-56.745592 95.435768-162.498741 41.269521-237.299748-5.15869-7.738035-12.896725-15.476071-18.055415-20.63476-7.738035-5.15869-12.896725-5.15869-15.476071 2.579345-12.896725 56.745592-41.269521 105.753149-92.856423 141.86398-15.476071 12.896725-33.531486 20.634761-51.586902 25.79345-7.738035 2.579345-7.738035 2.579345-12.896725 12.896726-7.738035 23.214106-23.214106 46.428212-38.690176 74.801007 2.579345 5.15869 2.579345 12.896725 10.31738 15.476071zM827.969773 585.511335c46.428212-41.269521 61.904282-108.332494 41.269522-175.395466-28.372796-92.856423-123.808564-141.86398-214.085643-113.491184-7.738035 2.579345-18.055416 5.15869-25.79345 12.896726-7.738035 5.15869-12.896725 7.738035-2.579346 15.47607 46.428212 28.372796 87.697733 74.801008 105.753149 128.967255 5.15869 18.055416 7.738035 36.110831 12.896725 56.745591 0 7.738035 0 7.738035 5.158691 15.476071 20.634761 18.055416 38.690176 38.690176 56.745592 59.324937 7.738035 5.15869 12.896725 7.738035 20.63476 0z" fill="#CA1A1D" p-id="8998"></path><path d="M508.130982 719.63728c-28.372796 0-56.745592-5.15869-79.959697-18.055416-2.579345 0-5.15869-2.579345-5.158691-5.15869v-141.86398c0-12.896725 7.738035-15.476071 15.476071-5.15869l61.904282 61.904282c2.579345 2.579345 2.579345 2.579345 7.738035 0 54.166247-51.586902 105.753149-103.173804 159.919396-154.760705 2.579345-2.579345 12.896725-2.579345 15.47607 2.579345 7.738035 23.214106 15.476071 46.428212 15.476071 74.801007 0 103.173804-87.697733 185.712846-190.871537 185.712847z" fill="#CA1A1D" p-id="8999"></path></svg>