<?xml version="1.0" standalone="no"?><!DOCTYPE svg PUBLIC "-//W3C//DTD SVG 1.1//EN" "http://www.w3.org/Graphics/SVG/1.1/DTD/svg11.dtd"><svg t="1556191333338" class="icon" style="" viewBox="0 0 1325 1024" version="1.1" xmlns="http://www.w3.org/2000/svg" p-id="7693" xmlns:xlink="http://www.w3.org/1999/xlink" width="258.7890625" height="200"><defs><style type="text/css"></style></defs><path d="M338.823529 623.435294c-33.129412-10.541176-64.752941-25.6-91.858823-45.17647 10.541176 66.258824 37.647059 129.505882 76.8 183.717647v-4.517647c0-45.176471 4.517647-90.352941 15.058823-134.02353z m237.929412-7.529412c-54.211765 21.082353-112.941176 28.611765-171.670588 22.588236-15.058824 66.258824-18.070588 135.529412-7.529412 201.788235 60.235294 49.694118 134.023529 79.811765 212.329412 90.352941-58.729412-94.870588-70.776471-210.823529-33.129412-314.729412zM424.658824 426.164706c-64.752941-7.529412-117.458824-52.705882-132.517648-115.952941-31.623529 57.223529-48.188235 120.470588-51.2 185.223529 33.129412 31.623529 72.282353 54.211765 114.447059 69.270588 18.070588-49.694118 40.658824-94.870588 69.270589-138.541176z m55.717647-70.776471c13.552941-15.058824 28.611765-28.611765 43.670588-42.164706 19.576471-39.152941 7.529412-87.341176-28.611765-114.447058s-85.835294-22.588235-117.458823 9.035294-36.141176 79.811765-10.541177 117.458823 73.788235 49.694118 112.941177 30.117647z m516.517647 414.117647c13.552941-40.658824-3.011765-85.835294-39.152942-108.423529-37.647059-22.588235-84.329412-15.058824-114.447058 16.564706-28.611765 31.623529-31.623529 79.811765-7.529412 114.447059 25.6 34.635294 70.776471 48.188235 111.435294 30.117647 18.070588-15.058824 34.635294-33.129412 49.694118-52.705883z" fill="#F2943A" p-id="7694"></path><path d="M900.517647 165.647059c-45.176471-30.117647-94.870588-52.705882-147.576471-63.247059 15.058824 24.094118 25.6 51.2 34.635295 78.305882 37.647059-10.541176 75.294118-15.058824 112.941176-15.058823z m-97.882353 79.811765c6.023529 54.211765-1.505882 109.929412-19.57647 161.129411 94.870588-37.647059 201.788235-31.623529 292.141176 13.552941-15.058824-67.764706-46.682353-131.011765-91.858824-183.717647-61.741176-7.529412-121.976471-4.517647-180.705882 9.035295zM1084.235294 498.447059c-112.941176-81.317647-268.047059-70.776471-370.447059 22.588235-7.529412 7.529412-15.058824 16.564706-22.588235 22.588235-97.882353 111.435294-97.882353 277.082353-1.505882 388.517647 58.729412-3.011765 117.458824-19.576471 170.164706-48.188235-60.235294-21.082353-103.905882-78.305882-103.905883-144.564706 0-72.282353 51.2-135.529412 121.976471-150.588235s143.058824 21.082353 173.17647 87.341176C1072.188235 624.941176 1084.235294 569.223529 1084.235294 512v-13.552941z m-415.623529-21.082353c46.682353-54.211765 73.788235-123.482353 73.788235-194.258824v-19.57647c-67.764706 24.094118-131.011765 63.247059-183.717647 112.941176-4.517647 6.023529-10.541176 10.541176-16.564706 15.058824-52.705882 52.705882-91.858824 117.458824-117.458823 186.729412 7.529412 0 15.058824 1.505882 22.588235 1.505882 73.788235 0 144.564706-27.105882 198.77647-76.8 7.529412-10.541176 15.058824-18.070588 22.588236-25.6z m-72.282353-218.352941c40.658824-27.105882 85.835294-48.188235 132.517647-63.247059-12.047059-37.647059-31.623529-73.788235-57.22353-103.905882H662.588235c-58.729412 0-117.458824 12.047059-171.670588 36.141176 57.223529 18.070588 99.388235 69.270588 105.411765 131.011765z" fill="#F2943A" p-id="7695"></path><path d="M689.694118 543.623529l22.588235-22.588235c102.4-93.364706 257.505882-103.905882 370.447059-22.588235-1.505882-25.6-4.517647-52.705882-9.035294-78.305883-90.352941-46.682353-197.270588-51.2-292.141177-13.552941 19.576471-51.2 25.6-106.917647 19.576471-161.129411 58.729412-13.552941 118.964706-16.564706 179.2-9.035295-24.094118-27.105882-51.2-51.2-79.811765-72.282353-37.647059 1.505882-75.294118 6.023529-112.941176 13.552942C778.541176 150.588235 768 124.988235 752.941176 99.388235c-27.105882-6.023529-54.211765-9.035294-82.823529-10.541176 25.6 30.117647 45.176471 66.258824 57.223529 103.905882-46.682353 15.058824-91.858824 37.647059-132.517647 64.752941-6.023529-61.741176-48.188235-112.941176-105.411764-132.517647C406.588235 165.647059 337.317647 228.894118 292.141176 310.211765c15.058824 63.247059 67.764706 108.423529 132.517648 115.952941-28.611765 42.164706-52.705882 88.847059-69.270589 137.035294-42.164706-12.047059-81.317647-36.141176-114.447059-67.764706V512c0 22.588235 1.505882 45.176471 4.517648 66.258824 28.611765 19.576471 60.235294 34.635294 93.364705 45.17647-10.541176 43.670588-15.058824 88.847059-15.058823 134.02353v4.517647c21.082353 28.611765 46.682353 55.717647 75.294118 78.305882-10.541176-67.764706-7.529412-135.529412 7.529411-201.788235 58.729412 6.023529 117.458824-1.505882 171.670589-22.588236-37.647059 103.905882-25.6 219.858824 33.129411 314.729412 18.070588 1.505882 34.635294 3.011765 52.705883 3.011765 9.035294 0 18.070588 0 27.105882-1.505883-99.388235-111.435294-97.882353-277.082353-1.505882-388.517647zM350.870588 274.070588c0-37.647059 22.588235-70.776471 58.729412-84.329412s75.294118-4.517647 100.894118 24.094118c25.6 27.105882 31.623529 67.764706 15.058823 102.4-15.058824 13.552941-30.117647 27.105882-43.670588 42.164706-28.611765 13.552941-61.741176 10.541176-87.341177-6.023529-27.105882-18.070588-43.670588-48.188235-43.670588-78.305883z m94.870588 304.188236c-7.529412 0-15.058824 0-22.588235-1.505883 25.6-69.270588 66.258824-134.023529 117.458824-186.729412 6.023529-4.517647 10.541176-10.541176 16.564706-15.058823 52.705882-49.694118 115.952941-87.341176 183.717647-111.435294v19.57647c0 72.282353-25.6 141.552941-73.788236 194.258824-7.529412 7.529412-15.058824 15.058824-22.588235 24.094118-52.705882 49.694118-123.482353 76.8-198.776471 76.8z" fill="#FED966" p-id="7696"></path><path d="M909.552941 585.788235c-40.658824 0-79.811765 16.564706-108.423529 45.176471-28.611765 28.611765-45.176471 67.764706-45.176471 108.423529 0 67.764706 43.670588 123.482353 103.905883 144.564706 31.623529-16.564706 61.741176-37.647059 87.341176-61.741176-39.152941 18.070588-85.835294 4.517647-111.435294-30.117647-25.6-34.635294-22.588235-82.823529 7.529412-114.447059 28.611765-31.623529 76.8-39.152941 114.447058-16.564706s54.211765 67.764706 39.152942 108.423529c22.588235-28.611765 40.658824-60.235294 54.211764-93.364706-25.6-55.717647-79.811765-90.352941-141.552941-90.352941z" fill="#FED966" p-id="7697"></path></svg>