<?xml version="1.0" encoding="UTF-8"?>
<svg width="40px" height="51px" viewBox="0 0 40 51" version="1.1" xmlns="http://www.w3.org/2000/svg" xmlns:xlink="http://www.w3.org/1999/xlink">
    <!-- Generator: Sketch 54.1 (76490) - https://sketchapp.com -->
    <title>形状结合</title>
    <desc>Created with Sketch.</desc>
    <g id="页面1" stroke="none" stroke-width="1" fill="none" fill-rule="evenodd">
        <g id="画板" transform="translate(-48.000000, -36.000000)" fill="#020A0C">
            <path d="M84.4358644,81.8569513 L84.4269276,81.8569513 L84.4269276,45.8879123 C84.4269276,45.0439586 83.7499476,44.3528806 82.9039692,44.3528806 L78.7446471,44.3528806 L78.7446471,47.8267199 C78.7446471,48.8143557 77.943168,49.6221559 76.963322,49.6221559 C75.983661,49.6221559 75.1821818,48.8143557 75.1821818,47.8267199 L75.1821818,44.3528806 L60.8072049,44.3528806 L60.8072049,47.8267199 C60.8072049,48.8143557 60.0057257,49.6221559 59.0260647,49.6221559 C58.0462188,49.6221559 57.2447396,48.8143557 57.2447396,47.8267199 L57.2447396,44.3528806 L53.0854792,44.3528806 C52.248376,44.3528806 51.5624592,45.0350134 51.5624592,45.8879123 L51.5624592,81.8569513 C51.5624592,82.7007186 52.2394391,83.3919829 53.0854792,83.3919829 L82.9128444,83.3919829 C83.7499476,83.3919829 84.4358644,82.7096638 84.4358644,81.8569513 Z M78.753584,40.7623812 L83.5717658,40.7623812 C86.0123205,40.7623812 87.9983297,42.7639915 87.9983297,45.2235457 L87.9983297,82.52138 C87.9983297,84.9809342 86.0123205,86.9825445 83.5717658,86.9825445 L52.4264961,86.9825445 C49.9862496,86.9825445 47.9999938,84.9809342 47.9999938,82.52138 L47.9999938,45.2235457 C47.9999938,42.7639915 49.9862496,40.7623812 52.4264961,40.7623812 L57.2447396,40.7623812 L57.2447396,37.8897954 C57.2447396,36.9022217 58.0462188,36.0944214 59.0260647,36.0944214 C60.0057257,36.0944214 60.8072049,36.9022217 60.8072049,37.8897954 L60.8072049,40.7623812 L75.1911186,40.7623812 L75.1911186,37.8897954 C75.1911186,36.9022217 75.9925978,36.0944214 76.9721972,36.0944214 C77.9521048,36.0944214 78.753584,36.9022217 78.753584,37.8897954 L78.753584,40.7623812 Z M57.3427488,66.9953829 C56.3630878,66.9953829 55.5614237,66.1875205 55.5614237,65.2001953 C55.5614237,64.2128701 56.3630878,63.4048214 57.3427488,63.4048214 L68.0036425,63.4048214 C68.9832419,63.4048214 69.7849676,64.2128701 69.7849676,65.2001953 C69.7849676,66.1875205 68.9832419,66.9953829 68.0036425,66.9953829 L57.3427488,66.9953829 Z M57.3427488,59.3294803 C56.3630878,59.3294803 55.5614237,58.5216801 55.5614237,57.5342306 C55.5614237,56.5466569 56.3630878,55.7388567 57.3427488,55.7388567 L73.347433,55.7388567 C74.3270324,55.7388567 75.1287581,56.5466569 75.1287581,57.5342306 C75.1287581,58.5216801 74.3270324,59.3294803 73.347433,59.3294803 L57.3427488,59.3294803 Z" id="形状结合"></path>
        </g>
    </g>
</svg>