<?xml version="1.0" encoding="UTF-8"?>
<svg width="34px" height="34px" viewBox="0 0 34 34" version="1.1" xmlns="http://www.w3.org/2000/svg" xmlns:xlink="http://www.w3.org/1999/xlink">
    <!-- Generator: Sketch 54.1 (76490) - https://sketchapp.com -->
    <title>正确</title>
    <desc>Created with Sketch.</desc>
    <g id="正确" stroke="none" stroke-width="1" fill="none" fill-rule="evenodd">
        <path d="M16.9999763,-2.20150287e-13 C26.3888735,-2.20150287e-13 34,7.61112653 34,16.9999763 C34,26.3888735 26.3888735,34 16.9999763,34 C7.61112653,34 0,26.3888735 0,16.9999763 C0,7.61112653 7.61112653,-2.20150287e-13 16.9999763,-2.20150287e-13 Z M27.2389055,12.246501 C27.6996931,11.7781276 27.6996931,11.0193618 27.2389055,10.5509884 C26.7775963,10.0828047 26.0304936,10.0828047 25.5691845,10.5509884 L14.4859127,21.8746341 L9.49500302,16.8077721 C9.03402577,16.3393987 8.28654378,16.3393987 7.82561394,16.8077721 C7.36482633,17.2753869 7.36482633,18.0341527 7.82561394,18.502526 L13.6686417,24.4353976 C14.1299508,24.9037236 14.8774328,24.9037236 15.33841,24.4353976 C15.3909888,24.3822025 15.4356026,24.3248351 15.4758071,24.2646232 L27.2389055,12.246501 Z" id="形状结合" fill="#84C058"></path>
    </g>
</svg>