<?xml version="1.0" standalone="no"?><!DOCTYPE svg PUBLIC "-//W3C//DTD SVG 1.1//EN" "http://www.w3.org/Graphics/SVG/1.1/DTD/svg11.dtd"><svg t="1546159441675" class="icon" style="" viewBox="0 0 1024 1024" version="1.1" xmlns="http://www.w3.org/2000/svg" p-id="2375" xmlns:xlink="http://www.w3.org/1999/xlink" width="200" height="200"><defs><style type="text/css"></style></defs><path d="M200.704 182.9888h256c34.816 0 57.344 28.672 49.152 65.536l-118.784 509.952c-8.192 34.816-45.056 65.536-79.872 65.536H51.2c-34.816 0-57.344-28.672-49.152-65.536L120.832 248.5248C129.024 211.6608 163.84 182.9888 200.704 182.9888" fill="#E03333" p-id="2376"></path><path d="M434.5856 182.9888h292.864c34.816 0 20.48 28.672 10.24 65.536L620.9536 758.4768c-8.192 34.816-6.144 65.536-40.96 65.536H285.0816c-34.816 0-57.344-28.672-49.152-65.536L354.7136 248.5248C362.9056 211.6608 399.7696 182.9888 434.5856 182.9888" fill="#004889" p-id="2377"></path><path d="M717.37344 182.9888H973.37344c34.816 0 57.344 28.672 49.152 65.536l-118.784 509.952c-8.192 34.816-43.008 65.536-79.872 65.536H567.86944c-34.816 0-57.344-28.672-49.152-65.536L637.50144 248.5248C645.69344 211.6608 680.50944 182.9888 717.37344 182.9888" fill="#008089" p-id="2378"></path><path d="M757.76 561.152l-30.72 102.4h8.192l-6.144 20.48h-8.192l-2.048 6.144h-28.672l2.048-6.144h-59.392l6.144-20.48h6.144l30.72-104.448 6.144-20.48h30.72l-4.096 10.24s8.192-6.144 16.384-8.192c8.192-2.048 51.2-2.048 51.2-2.048l-6.144 20.48H757.76z m-53.248 0l-8.192 26.624s8.192-4.096 14.336-6.144c4.096-2.048 12.288-2.048 12.288-2.048l6.144-18.432h-24.576z m-10.24 38.912l-8.192 26.624s8.192-4.096 14.336-6.144c4.096-2.048 12.288-2.048 12.288-2.048l6.144-18.432h-24.576z m-20.48 63.488h24.576l6.144-22.528h-24.576l-6.144 22.528z" fill="#FFFFFF" p-id="2379"></path><path d="M772.096 538.624h32.768v12.288c0 2.048 2.048 2.048 6.144 2.048h6.144l-6.144 20.48h-16.384c-14.336 2.048-20.48-6.144-20.48-12.288l-2.048-22.528zM776.192 632.832h-30.72l6.144-18.432h34.816l4.096-16.384h-34.816l6.144-20.48h96.256l-6.144 20.48H819.2l-4.096 16.384h32.768l-6.144 18.432h-34.816l-6.144 8.192h14.336l4.096 22.528c0 2.048 0 4.096 2.048 4.096 0 0 4.096 2.048 8.192 2.048h4.096l-6.144 22.528h-18.432c-4.096 0-6.144-2.048-8.192-4.096-2.048 0-4.096-4.096-6.144-8.192l-4.096-22.528-16.384 22.528c-4.096 6.144-12.288 12.288-22.528 12.288h-22.528l6.144-18.432h8.192c2.048 0 4.096 0 6.144-2.048 2.048 0 4.096-2.048 4.096-4.096l22.528-34.816zM440.32 585.728h81.92l-6.144 20.48h-32.768l-4.096 16.384H512l-6.144 20.48H471.04l-8.192 26.624c0 2.048 8.192 4.096 10.24 4.096l16.384-2.048-6.144 22.528h-36.864c-2.048 0-6.144 0-8.192-2.048-4.096 0-4.096-2.048-6.144-4.096-2.048-2.048-4.096-4.096-2.048-8.192l10.24-34.816h-18.432l6.144-20.48h18.432l4.096-16.384h-18.432l8.192-22.528zM493.568 550.912h32.768l-6.144 20.48h-45.056l-4.096 4.096c-2.048 2.048-2.048 2.048-6.144 2.048-2.048 2.048-8.192 4.096-14.336 4.096h-14.336l6.144-20.48h4.096c4.096 0 6.144 0 8.192-2.048 2.048 0 2.048-2.048 4.096-6.144l8.192-14.336h32.768l-6.144 12.288zM542.72 538.624h28.672l-4.096 14.336s8.192-6.144 14.336-10.24c6.144-2.048 20.48-4.096 20.48-4.096h45.056l-16.384 53.248c-2.048 8.192-6.144 14.336-8.192 16.384l-8.192 8.192c-4.096 2.048-8.192 4.096-10.24 4.096H544.768l-12.288 40.96c-2.048 4.096-2.048 6.144 0 6.144 0 0 2.048 2.048 4.096 2.048l20.48-2.048-6.144 22.528H512c-4.096 0-6.144 0-10.24-2.048-2.048-2.048-6.144-4.096-4.096-6.144 0-2.048 2.048-6.144 2.048-10.24l43.008-133.12z m59.392 53.248h-47.104l-2.048 10.24h47.104l2.048-10.24z m-43.008-8.192s8.192-8.192 24.576-10.24h26.624l4.096-10.24h-47.104l-8.192 20.48z" fill="#FFFFFF" p-id="2380"></path><path d="M624.64 624.64l-2.048 12.288c-2.048 4.096-2.048 6.144-4.096 10.24-2.048 2.048-6.144 6.144-14.336 6.144h-16.384v14.336c0 4.096 0 4.096 2.048 4.096l2.048 2.048H610.304l-6.144 20.48h-16.384c-12.288 0-20.48 0-24.576-2.048-2.048-2.048-4.096-4.096-4.096-8.192l2.048-55.296h26.624v12.288h10.24l2.048-2.048 2.048-8.192h22.528zM231.424 346.112c0 4.096-18.432 86.016-18.432 86.016-4.096 16.384-6.144 28.672-16.384 36.864-6.144 4.096-12.288 6.144-18.432 6.144-12.288 0-18.432-6.144-20.48-16.384v-4.096l4.096-22.528S180.224 358.4 184.32 348.16v-2.048H141.312l-2.048 6.144-18.432 83.968-2.048 6.144-4.096 22.528c0 6.144 2.048 12.288 4.096 16.384 8.192 14.336 32.768 16.384 47.104 16.384 18.432 0 34.816-4.096 47.104-10.24 20.48-12.288 24.576-30.72 28.672-47.104l2.048-8.192s18.432-77.824 22.528-88.064v-2.048c-24.576 6.144-32.768 4.096-34.816 4.096M335.872 499.712h-32.768v-2.048c2.048-6.144 2.048-12.288 4.096-16.384l2.048-8.192c2.048-12.288 6.144-26.624 6.144-30.72 0-2.048 2.048-8.192-6.144-8.192-4.096 0-6.144 2.048-10.24 2.048-2.048 6.144-6.144 24.576-8.192 32.768-4.096 18.432-4.096 18.432-6.144 28.672l-2.048 2.048h-32.768v-2.048c2.048-10.24 4.096-20.48 8.192-30.72 6.144-28.672 8.192-38.912 10.24-53.248h2.048c14.336-2.048 18.432-2.048 34.816-6.144l2.048 2.048-2.048 8.192c2.048-2.048 6.144-4.096 8.192-4.096 8.192-4.096 16.384-4.096 20.48-4.096 6.144 0 14.336 2.048 18.432 10.24 2.048 8.192 2.048 16.384-2.048 34.816l-2.048 8.192c-6.144 18.432-8.192 22.528-12.288 36.864zM389.12 499.712H354.304c2.048-8.192 2.048-10.24 4.096-12.288 0-2.048 2.048-6.144 4.096-12.288 2.048-10.24 4.096-16.384 4.096-22.528 0-6.144 2.048-10.24 2.048-16.384 8.192-2.048 12.288-2.048 18.432-2.048 4.096 0 10.24-2.048 18.432-4.096-2.048 6.144-2.048 12.288-4.096 18.432-2.048 6.144-2.048 12.288-4.096 18.432-2.048 12.288-4.096 18.432-4.096 20.48-2.048 2.048-2.048 4.096-4.096 12.288zM503.808 456.704c4.096-20.48 2.048-28.672-4.096-34.816-6.144-10.24-16.384-12.288-28.672-12.288-8.192 0-24.576 0-38.912 14.336-10.24 8.192-14.336 22.528-16.384 32.768-2.048 12.288-6.144 34.816 14.336 43.008 6.144 2.048 14.336 4.096 20.48 4.096 14.336 0 30.72-4.096 40.96-16.384 8.192-10.24 12.288-26.624 12.288-30.72m-32.768-2.048c0 4.096-4.096 16.384-8.192 20.48-2.048 4.096-6.144 6.144-10.24 6.144-2.048 0-8.192 0-8.192-10.24 0-4.096 0-10.24 2.048-14.336 4.096-14.336 8.192-26.624 18.432-26.624 8.192 0 10.24 10.24 6.144 24.576M788.48 477.184c-2.048 4.096-8.192 6.144-12.288 6.144 0 0-8.192 0-8.192-10.24 0-4.096 0-10.24 2.048-14.336 4.096-14.336 8.192-26.624 18.432-26.624 6.144 0 10.24 6.144 8.192 16.384 0 2.048-2.048 6.144-2.048 8.192-2.048 4.096-2.048 8.192-4.096 12.288 0 4.096-2.048 6.144-2.048 8.192z m49.152-65.536c-16.384 2.048-20.48 4.096-34.816 6.144h-2.048v4.096c-2.048-4.096-6.144-8.192-10.24-10.24-6.144-2.048-22.528 0-36.864 14.336-10.24 8.192-14.336 20.48-16.384 32.768-2.048 12.288-6.144 32.768 14.336 40.96 6.144 2.048 12.288 4.096 18.432 4.096 6.144 0 12.288-4.096 16.384-8.192 0 2.048 0 4.096-2.048 6.144v2.048H819.2l2.048-2.048c2.048-14.336 4.096-26.624 10.24-51.2 2.048-14.336 4.096-26.624 6.144-38.912zM591.872 499.712h-32.768v-2.048c2.048-6.144 2.048-12.288 4.096-16.384l2.048-8.192c2.048-12.288 6.144-26.624 6.144-30.72 0-2.048 2.048-8.192-6.144-8.192-4.096 0-6.144 2.048-10.24 2.048-2.048 6.144-6.144 24.576-8.192 32.768-4.096 18.432-4.096 18.432-6.144 28.672l-2.048 2.048h-32.768v-2.048c2.048-10.24 4.096-20.48 8.192-30.72 6.144-28.672 8.192-38.912 10.24-53.248h2.048c14.336-2.048 18.432-2.048 34.816-6.144l2.048 2.048-2.048 8.192c2.048-2.048 6.144-4.096 8.192-4.096 8.192-4.096 16.384-4.096 20.48-4.096 6.144 0 14.336 2.048 18.432 10.24 2.048 8.192 0 16.384-2.048 34.816l-2.048 8.192c-8.192 18.432-8.192 22.528-12.288 36.864zM716.8 393.216c-2.048 10.24-8.192 18.432-18.432 22.528-6.144 4.096-16.384 4.096-24.576 4.096h-6.144v-2.048l10.24-45.056V368.64h4.096l22.528 2.048c12.288 4.096 16.384 12.288 12.288 22.528m-12.288-47.104h-53.248c0 2.048-2.048 6.144-2.048 6.144l-10.24 47.104s-24.576 98.304-24.576 102.4h38.912c0-4.096 6.144-32.768 6.144-32.768l4.096-20.48 2.048-2.048h2.048c20.48 0 45.056 0 63.488-14.336 12.288-10.24 20.48-22.528 24.576-38.912 0-4.096 2.048-8.192 2.048-14.336 0-6.144-2.048-12.288-4.096-18.432-10.24-14.336-28.672-14.336-49.152-14.336M403.456 421.888c8.192-6.144 10.24-14.336 2.048-18.432-8.192-4.096-20.48-2.048-28.672 2.048-8.192 6.144-10.24 14.336-2.048 18.432 6.144 4.096 20.48 4.096 28.672-2.048M946.176 409.6c-16.384 2.048-20.48 2.048-34.816 4.096l-2.048 2.048c-10.24 24.576-10.24 20.48-18.432 38.912v-2.048l-2.048-43.008h-2.048c-16.384 4.096-16.384 4.096-32.768 6.144l-2.048 2.048v2.048c2.048 10.24 2.048 8.192 4.096 22.528 0 8.192 2.048 14.336 2.048 22.528 2.048 12.288 2.048 18.432 4.096 36.864-10.24 16.384-12.288 24.576-22.528 38.912l-6.144 10.24c0 2.048-2.048 2.048-2.048 2.048h-8.192l-6.144 20.48h20.48c12.288 0 18.432-6.144 22.528-12.288l12.288-20.48 2.048-2.048c8.192-18.432 71.68-129.024 71.68-129.024" fill="#FFFFFF" p-id="2381"></path></svg>