<?xml version="1.0" encoding="UTF-8"?>
<svg width="43px" height="34px" viewBox="0 0 43 34" version="1.1" xmlns="http://www.w3.org/2000/svg" xmlns:xlink="http://www.w3.org/1999/xlink">
    <!-- Generator: Sketch 54.1 (76490) - https://sketchapp.com -->
    <title>jin@1x</title>
    <desc>Created with Sketch.</desc>
    <g id="jin" stroke="none" stroke-width="1" fill="none" fill-rule="evenodd">
        <path d="M16.3592922,2 C15.6983179,2 15.1158489,2.4771359 14.9255735,3.17415009 L12.0644566,13.6550154 C11.7753843,14.7129965 12.4949048,15.7790397 13.4978426,15.7790397 L29.5019348,15.7790397 C30.5052052,15.7790397 31.2243931,14.7129965 30.9356534,13.6550154 L28.0742039,3.17415009 C27.8839284,2.4771359 27.3014594,2 26.6408179,2 L16.3592922,2 Z M25.4628933,5 L27.5866998,12.7790397 L15.4133573,12.7790397 L17.5369169,5 L25.4628933,5 Z" id="Fill-5" fill="#9A81D5" fill-rule="nonzero"></path>
        <path d="M27.3592922,18.2209603 C26.6983179,18.2209603 26.1158489,18.6980962 25.9255735,19.3951104 L23.0644566,29.8759757 C22.7753843,30.9339567 23.4949048,32 24.4978426,32 L40.5019348,32 C41.5052052,32 42.2243931,30.9339567 41.9356534,29.8759757 L39.0742039,19.3951104 C38.8839284,18.6980962 38.3014594,18.2209603 37.6408179,18.2209603 L27.3592922,18.2209603 Z M36.4628933,21.2209603 L38.5866998,29 L26.4133573,29 L28.5369169,21.2209603 L36.4628933,21.2209603 Z" id="Fill-3" fill="#9A81D5" fill-rule="nonzero"></path>
        <path d="M5.35929215,18.2209603 C4.69831792,18.2209603 4.11584893,18.6980962 3.92557351,19.3951104 L1.06445657,29.8759757 C0.775384292,30.9339567 1.49490481,32 2.49784256,32 L18.5019348,32 C19.5052052,32 20.2243931,30.9339567 19.9356534,29.8759757 L17.0742039,19.3951104 C16.8839284,18.6980962 16.3014594,18.2209603 15.6408179,18.2209603 L5.35929215,18.2209603 Z M6.53691694,21.2209603 L14.4628933,21.2209603 L16.5866998,29 L4.41335726,29 L6.53691694,21.2209603 Z" id="Fill-1" fill="#9A81D5" fill-rule="nonzero"></path>
    </g>
</svg>