<?xml version="1.0" encoding="UTF-8"?>
<svg width="43px" height="34px" viewBox="0 0 43 34" version="1.1" xmlns="http://www.w3.org/2000/svg" xmlns:xlink="http://www.w3.org/1999/xlink">
    <!-- Generator: Sketch 54.1 (76490) - https://sketchapp.com -->
    <title>jin@2x</title>
    <desc>Created with Sketch.</desc>
    <g id="jin" stroke="none" stroke-width="1" fill="none" fill-rule="evenodd">
        <path d="M5.35929215,19.7209603 C5.39654247,19.7209603 5.39005814,19.726271 5.3726246,19.7901333 L2.51141745,30.271329 C2.47229593,30.4145105 2.52999088,30.5 2.49784256,30.5 L18.5019348,30.5 C18.4700197,30.5 18.5277534,30.4144532 18.488614,30.2710414 L15.6271534,19.7901355 C15.6097213,19.7262785 15.6032288,19.7209603 15.6408179,19.7209603 L5.35929215,19.7209603 Z M27.3592922,19.7209603 C27.3965425,19.7209603 27.3900581,19.726271 27.3726246,19.7901333 L24.5114174,30.271329 C24.4722959,30.4145105 24.5299909,30.5 24.4978426,30.5 L40.5019348,30.5 C40.4700197,30.5 40.5277534,30.4144532 40.488614,30.2710414 L37.6271534,19.7901355 C37.6097213,19.7262785 37.6032288,19.7209603 37.6408179,19.7209603 L27.3592922,19.7209603 Z M16.3592922,3.5 C16.3965425,3.5 16.3900581,3.50531075 16.3726246,3.56917304 L13.5114174,14.0503687 C13.4722959,14.1935503 13.5299909,14.2790397 13.4978426,14.2790397 L29.5019348,14.2790397 C29.4700197,14.2790397 29.5277534,14.1934929 29.488614,14.0500811 L26.6271534,3.56917525 C26.6097213,3.50531826 26.6032288,3.5 26.6408179,3.5 L16.3592922,3.5 Z" id="形状结合" stroke="#9A81D5" stroke-width="3"></path>
    </g>
</svg>