<?xml version="1.0" encoding="UTF-8"?>
<svg width="68px" height="68px" viewBox="0 0 68 68" version="1.1" xmlns="http://www.w3.org/2000/svg" xmlns:xlink="http://www.w3.org/1999/xlink">
    <!-- Generator: Sketch 54.1 (76490) - https://sketchapp.com -->
    <title>头像</title>
    <desc>Created with Sketch.</desc>
    <g id="头像" stroke="none" stroke-width="1" fill="none" fill-rule="evenodd">
        <path d="M34,68 C15.2223185,68 1.42108547e-14,52.7776815 1.42108547e-14,34 C1.42108547e-14,15.2223185 15.2223185,1.42108547e-14 34,1.42108547e-14 C52.7776815,1.42108547e-14 68,15.2223185 68,34 C68,52.7776815 52.7776815,68 34,68 Z M54.6229508,50.7028072 L54.5600498,45.6923535 C54.5600498,38.9911665 41.1830333,35.6721311 34.5259265,35.6721311 C27.8689179,35.6721311 14.4918033,39.0538914 14.4918033,45.6923535 L14.4918033,50.7028072 C14.4918033,51.6421143 15.2458305,52.3934426 16.1876777,52.3934426 L52.9275671,52.3934426 C53.8693161,52.3934426 54.6229508,51.6421143 54.6229508,50.7028072 Z M24.5462764,21.6136831 C24.1692754,27.4407582 28.7560229,32.3278689 34.5365089,32.3278689 C40.0659553,32.3278689 44.5901639,27.8167049 44.5901639,22.3028207 C44.5901639,16.6006695 39.8147195,11.9640921 33.9713019,12.277283 C28.9446216,12.5908656 24.8603457,16.6006695 24.5462764,21.6136831 Z" fill="#97A0AB"></path>
    </g>
</svg>