<?xml version="1.0" standalone="no"?><!DOCTYPE svg PUBLIC "-//W3C//DTD SVG 1.1//EN" "http://www.w3.org/Graphics/SVG/1.1/DTD/svg11.dtd"><svg t="1561548046367" class="icon" viewBox="0 0 1024 1024" version="1.1" xmlns="http://www.w3.org/2000/svg" p-id="2129" xmlns:xlink="http://www.w3.org/1999/xlink" width="200" height="200"><defs><style type="text/css"></style></defs><path d="M371.753086 72.655539c-26.513383 0-35.087802 12.443918-25.770666 40.417449 17.657679 49.603951 58.780971 89.15121 73.991374 89.15121h184.526486c14.895407 0 55.128494-39.147984 71.606255-87.021038 9.454091-29.406288 0.241251-42.547621-26.712494-42.547621H371.753086z m0-72.655539h277.640955c76.667259 0 120.285235 61.534815 95.882008 137.439342-26.103572 75.906634-89.819128 137.439342-140.775769 137.439341H419.973794c-50.956642 0-115.417021-61.532708-142.439243-137.439341C252.212675 61.534815 295.085827 0 371.753086 0z" fill="#515151" p-id="2130"></path><path d="M155.340379 798.122667c-13.808198 81.563918-0.40665 111.063967 42.840493 128.731127 48.499885 19.814189 111.968922 24.176724 287.725037 24.006058 13.05284-0.012642 18.915556-0.016856 26.331128-0.016856 7.409251 0 13.268807 0.004214 26.312165 0.016856 175.641284 0.170667 239.080823-4.192922 287.558584-24.002897 43.230288-17.66716 56.631835-47.172477 42.824691-128.734288C825.739062 543.002337 640.632099 257.692971 512.034765 257.692971c-128.425613 0-313.514667 285.371523-356.69544 540.429696zM83.705679 785.995852c41.61949-245.841119 233.389827-600.957366 428.33014-600.957366 195.141531 0 386.911868 355.116247 428.531358 600.957366 41.620543 245.840066-150.149794 237.50163-428.33014 237.501629-278.381564 0-470.151901 8.338436-428.531358-237.501629z" fill="#515151" p-id="2131"></path><path d="M512.010535 616.148807h1.354798l50.403556-119.602568a18.163358 18.163358 0 0 1 16.737975-11.11019h40.848329c10.031407 0 18.164412 8.133004 18.164412 18.164412 0 2.881317-0.685827 5.720494-2.000593 8.285761L568.450634 646.626502h29.922502c10.031407 0 18.163358 8.133004 18.163358 18.164412v5.211654c0 10.031407-8.131951 18.163358-18.163358 18.163358h-48.434568v23.930206h48.434568c10.031407 0 18.163358 8.133004 18.163358 18.163358v4.986205c0 10.031407-8.131951 18.164412-18.163358 18.164412h-48.434568v42.564477c0 10.031407-8.133004 18.163358-18.164412 18.163358h-39.751637c-10.032461 0-18.164412-8.131951-18.164412-18.163358v-42.564477H419.102551c-10.031407 0-18.163358-8.133004-18.163358-18.164412v-4.986205c0-10.031407 8.131951-18.162305 18.163358-18.162305h54.755556V688.165926H419.102551c-10.031407 0-18.163358-8.133004-18.163358-18.163358v-5.211654c0-10.032461 8.131951-18.164412 18.163358-18.164412h38.050239L387.904263 511.905185c-4.585877-8.923128-1.071407-19.873185 7.850667-24.459062a18.163358 18.163358 0 0 1 8.303671-2.00902h41.017942c7.316543 0 13.917761 4.388872 16.74851 11.135473l50.186535 119.578338z" fill="#515151" p-id="2132"></path></svg>