<?xml version="1.0" encoding="UTF-8"?>
<svg width="21px" height="23px" viewBox="0 0 21 23" version="1.1" xmlns="http://www.w3.org/2000/svg" xmlns:xlink="http://www.w3.org/1999/xlink">
    <!-- Generator: Sketch 54.1 (76490) - https://sketchapp.com -->
    <title>形状结合</title>
    <desc>Created with Sketch.</desc>
    <g id="页面1" stroke="none" stroke-width="1" fill="none" fill-rule="evenodd">
        <g id="订单icon" transform="translate(-126.000000, -63.000000)" fill="#5E5F63">
            <path d="M143.017468,66.0684043 C143.017468,66.6329723 142.531363,67.0910594 141.931199,67.0910594 C141.331035,67.0910594 140.84493,66.6329723 140.844817,66.0684043 L140.844817,64.0229844 C140.844817,63.4580871 141.330922,63 141.931199,63 C142.531363,63 143.017468,63.4580871 143.017468,64.0229844 L143.017468,66.0684043 Z M132.155127,66.0684043 C132.155127,66.6329723 131.669134,67.0910594 131.068857,67.0910594 C130.468693,67.0910594 129.982701,66.6329723 129.982701,66.0684043 L129.982701,64.0229844 C129.982701,63.4580871 130.468693,63 131.068857,63 C131.669134,63 132.155127,63.4580871 132.155127,64.0229844 L132.155127,66.0684043 Z M131.793247,73.4694243 L141.206753,73.4694243 C141.640111,73.4694243 141.991531,73.1271488 141.991418,72.7053969 C141.991418,72.2834254 141.640111,71.9411499 141.206753,71.9411499 L131.793247,71.9411499 C131.359889,71.9411499 131.008582,72.2834254 131.008582,72.7053969 C131.008582,73.1271488 131.359889,73.4694243 131.793247,73.4694243 Z M131.793247,77.4186556 L141.206753,77.4186556 C141.640111,77.4186556 141.991531,77.0763801 141.991418,76.6546282 C141.991418,76.232547 141.640111,75.8903812 141.206753,75.8903812 L131.793247,75.8903812 C131.359889,75.8903812 131.008582,76.232547 131.008582,76.6546282 C131.008582,77.0763801 131.359889,77.4186556 131.793247,77.4186556 Z M131.793247,81.3677772 L141.206753,81.3677772 C141.640111,81.3677772 141.991531,81.0256115 141.991418,80.6037498 C141.991418,80.1816685 141.640111,79.8395028 141.206753,79.8395028 L131.793247,79.8395028 C131.359889,79.8395028 131.008582,80.1816685 131.008582,80.6037498 C131.008582,81.0256115 131.359889,81.3677772 131.793247,81.3677772 Z M144.103545,65.0457054 L145.913731,65.0457054 C146.513895,65.0457054 146.999887,65.5037925 147,66.0683604 L147,84.9772351 C147,85.5419129 146.514008,86 145.913844,86 L127.086269,86 C126.486105,86 126,85.5419129 126,84.9772351 L126,66.0683604 C126,65.5037925 126.486105,65.0457054 127.086269,65.0457054 L128.896455,65.0457054 L128.896455,66.0683604 C128.896455,67.1976061 129.869115,68.1137804 131.06888,68.1137804 C132.269321,68.1137804 133.241305,67.1976061 133.241305,66.0683604 L133.241305,65.0457054 L134.327462,65.0457054 L134.400045,65.0457054 C134.400045,65.0563534 135.300348,65.0457054 136.5,65.0457054 C137.699765,65.0457054 138.600068,65.0217746 138.600068,65.0457054 L138.672538,65.0457054 L139.758695,65.0457054 L139.758695,66.0683604 C139.758695,67.1976061 140.731468,68.1137804 141.931233,68.1137804 C143.130885,68.1137804 144.103545,67.1976061 144.103545,66.0683604 L144.103545,65.0457054 Z" id="形状结合"></path>
        </g>
    </g>
</svg>